<svg xmlns="http://www.w3.org/2000/svg" version="1.1" xmlns:xlink="http://www.w3.org/1999/xlink" xmlns:svgjs="http://svgjs.com/svgjs" width="512" height="512" x="0" y="0" viewBox="0 0 60 60" style="enable-background:new 0 0 512 512" xml:space="preserve" class=""><g><path xmlns="http://www.w3.org/2000/svg" d="m55 9.231c-.421 6.569-3.48 38.269-24.055 49.529a1.98 1.98 0 0 1 -1.89 0c-20.575-11.26-23.634-42.96-24.055-49.529a1.99 1.99 0 0 1 .98-1.845 48.367 48.367 0 0 1 48.04 0 1.99 1.99 0 0 1 .98 1.845z" fill="#c0dadc" data-original="#c0dadc" class=""></path><path xmlns="http://www.w3.org/2000/svg" d="m29.456 54.355c-15.943-10.096-19.537-34.918-20.31-43.455a1 1 0 0 1 .542-.984 45.6 45.6 0 0 1 20.312-4.916 45.583 45.583 0 0 1 20.312 4.916 1 1 0 0 1 .542.984c-.774 8.538-4.368 33.36-20.31 43.455a1.027 1.027 0 0 1 -1.088 0z" fill="#3b437f" data-original="#3b437f" class=""></path><rect xmlns="http://www.w3.org/2000/svg" fill="#292d60" height="18" rx="2" width="52" x="4" y="18" data-original="#292d60" class=""></rect><g xmlns="http://www.w3.org/2000/svg" fill="#fff"><path d="m20 23a2 2 0 0 1 2 2 1 1 0 0 0 2 0 4 4 0 0 0 -8 0v4a4 4 0 0 0 8 0 1 1 0 0 0 -2 0 2 2 0 0 1 -4 0v-4a2 2 0 0 1 2-2z" fill="#ffffff" data-original="#ffffff" class=""></path><path d="m30.5 23a1.5 1.5 0 0 1 1.5 1.5 1 1 0 0 0 2 0 3.5 3.5 0 1 0 -3.5 3.5 1.5 1.5 0 1 1 -1.5 1.5 1 1 0 0 0 -2 0 3.5 3.5 0 1 0 3.5-3.5 1.5 1.5 0 0 1 0-3z" fill="#ffffff" data-original="#ffffff" class=""></path><path d="m40.5 26a1.5 1.5 0 1 1 1.5-1.5 1 1 0 0 0 2 0 3.5 3.5 0 1 0 -3.5 3.5 1.5 1.5 0 1 1 -1.5 1.5 1 1 0 0 0 -2 0 3.5 3.5 0 1 0 3.5-3.5z" fill="#ffffff" data-original="#ffffff" class=""></path></g></g></svg>