<?xml version="1.0" encoding="UTF-8" standalone="no"?>
<svg
   xmlns:dc="http://purl.org/dc/elements/1.1/"
   xmlns:cc="http://creativecommons.org/ns#"
   xmlns:rdf="http://www.w3.org/1999/02/22-rdf-syntax-ns#"
   xmlns:svg="http://www.w3.org/2000/svg"
   xmlns="http://www.w3.org/2000/svg"
   xmlns:sodipodi="http://sodipodi.sourceforge.net/DTD/sodipodi-0.dtd"
   xmlns:inkscape="http://www.inkscape.org/namespaces/inkscape"
   version="1.1"
   width="512"
   height="512"
   x="0"
   y="0"
   viewBox="0 0 60 60"
   style="enable-background:new 0 0 512 512"
   xml:space="preserve"
   class=""
   id="svg18"
   sodipodi:docname="javascript.svg"
   inkscape:version="0.92.4 (5da689c313, 2019-01-14)"><metadata
     id="metadata24"><rdf:RDF><cc:Work
         rdf:about=""><dc:format>image/svg+xml</dc:format><dc:type
           rdf:resource="http://purl.org/dc/dcmitype/StillImage" /></cc:Work></rdf:RDF></metadata><defs
     id="defs22" /><sodipodi:namedview
     pagecolor="#ffffff"
     bordercolor="#666666"
     borderopacity="1"
     objecttolerance="10"
     gridtolerance="10"
     guidetolerance="10"
     inkscape:pageopacity="0"
     inkscape:pageshadow="2"
     inkscape:window-width="1600"
     inkscape:window-height="837"
     id="namedview20"
     showgrid="false"
     inkscape:zoom="0.921875"
     inkscape:cx="66.715467"
     inkscape:cy="256.89836"
     inkscape:window-x="-8"
     inkscape:window-y="-8"
     inkscape:window-maximized="1"
     inkscape:current-layer="g16" /><g
     id="g16"><path
       d="M 55,9.231 C 54.579,15.8 51.52,47.5 30.945,58.76 a 1.98,1.98 0 0 1 -1.89,0 C 8.48,47.5 5.421,15.8 5,9.231 a 1.99,1.99 0 0 1 0.98,-1.845 48.367,48.367 0 0 1 48.04,0 1.99,1.99 0 0 1 0.98,1.845 z"
       data-original="#c0dadc"
       class=""
       id="path2"
       inkscape:connector-curvature="0"
       style="fill:#c0dadc" /><path
       d="M 29.456,54.355 C 13.513,44.259 9.919,19.437 9.146,10.9 A 1,1 0 0 1 9.688,9.916 45.6,45.6 0 0 1 30,5 45.583,45.583 0 0 1 50.312,9.916 1,1 0 0 1 50.854,10.9 c -0.774,8.538 -4.368,33.36 -20.31,43.455 a 1.027,1.027 0 0 1 -1.088,0 z"
       data-original="#3b437f"
       class=""
       id="path4"
       inkscape:connector-curvature="0"
       style="fill:#3b437f" /><rect
       height="18"
       rx="2"
       width="52"
       x="4"
       y="18"
       data-original="#292d60"
       class=""
       id="rect6"
       style="fill:#ffcc00" /><g
       id="g14"
       style="fill:#ffffff" /><text
       xml:space="preserve"
       style="font-style:normal;font-weight:normal;font-size:6.25px;line-height:1.25;font-family:sans-serif;letter-spacing:0px;word-spacing:0px;fill:#ffffff;fill-opacity:1;stroke:none;stroke-width:0.1171875"
       x="20.235901"
       y="32.998535"
       id="text821"><tspan
         sodipodi:role="line"
         id="tspan819"
         x="20.235901"
         y="32.998535"
         style="font-style:normal;font-variant:normal;font-weight:bold;font-stretch:normal;font-size:16.875px;font-family:Roboto;-inkscape-font-specification:'Roboto Bold';fill:#ffffff;fill-opacity:1;stroke-width:0.1171875">JS</tspan></text>
</g></svg>