<svg class="animated" id="freepik_stories-pull-request" xmlns="http://www.w3.org/2000/svg" viewBox="0 0 750 500" version="1.1" xmlns:xlink="http://www.w3.org/1999/xlink" xmlns:svgjs="http://svgjs.com/svgjs"><style>svg#freepik_stories-pull-request:not(.animated) .animable {opacity: 0;}svg#freepik_stories-pull-request.animated #freepik--Arrows--inject-17 {animation: 1.5s Infinite  linear shake;animation-delay: 0s;}            @keyframes shake {                10%, 90% {                    transform: translate3d(-1px, 0, 0);                  }                  20%, 80% {                    transform: translate3d(2px, 0, 0);                  }                  30%, 50%, 70% {                    transform: translate3d(-4px, 0, 0);                  }                  40%, 60% {                    transform: translate3d(4px, 0, 0);                  }            }        </style><g id="freepik--background-simple--inject-17" class="animable" style="transform-origin: 378.137px 256.864px;"><path d="M648.85,136.69q-4.08-4-8-8.18c-13.35-14.41-63-64-130.88-84.68C430.08,19.47,349.21,30.19,299.51,114S251.77,217.27,169.92,225.06,48.12,248.45,23.76,319.58s39,184.16,197.8,157.85,194.88-56.51,266-34.1S648.35,478.41,685.37,418C721.8,358.56,736.54,222.72,648.85,136.69Z" style="fill: #64A6D4; transform-origin: 366.364px 256.864px;" id="el8u6wr4px5zt" class="animable"></path><g id="ela7pp4z55ks"><path d="M648.85,136.69q-4.08-4-8-8.18c-13.35-14.41-63-64-130.88-84.68C430.08,19.47,349.21,30.19,299.51,114S251.77,217.27,169.92,225.06,48.12,248.45,23.76,319.58s39,184.16,197.8,157.85,194.88-56.51,266-34.1S648.35,478.41,685.37,418C721.8,358.56,736.54,222.72,648.85,136.69Z" style="fill: rgb(255, 255, 255); opacity: 0.7; transform-origin: 366.364px 256.864px;" class="animable" id="ellbermreq4hc"></path></g><path d="M702.71,304.65c.1.05,1.24-7.25,1.26-7.72.22-5.42-2.54-16-8.25-18.12a7.19,7.19,0,0,0-9.32,5.26c-1.06,4.16,1.27,8.9,3.8,12.07C693.16,299.87,702.7,304.64,702.71,304.65Z" style="fill: rgb(255, 255, 255); transform-origin: 695.06px 291.541px;" id="el05kku5diokdk" class="animable"></path><path d="M595.09,312.84c4.53,1.47,15.12.19,15.13.19s-3-6.73-3.21-7.13c-2.8-4.65-11-12-16.87-10.57-4.27,1-6.24,5.56-4.87,9.53S591.24,311.58,595.09,312.84Z" style="fill: rgb(255, 255, 255); transform-origin: 597.53px 304.348px;" id="elgkw6xzz86l8" class="animable"></path><path d="M730.63,263.07c-6.08-.06-12.42,8.88-14.13,14-.15.45-1.67,7.67-1.56,7.66h.13c-1,1.4-2.08,2.92-3.21,4.6-2.07,3.12-4.38,6.66-6.63,10.69a126.54,126.54,0,0,0-6.66,13.34,93.29,93.29,0,0,0-5.25,15.83c0,.06,0,.13,0,.19-.14-1.77-.7-6.72-.79-7.1-1.22-5.28-6.68-14.79-12.74-15.3a7.2,7.2,0,0,0-7.6,7.54c.07,4.29,3.58,8.25,6.85,10.64,3.69,2.7,13.39,4.71,14.17,4.87a126.38,126.38,0,0,0-2.37,16.82c-.26,3.29-.42,6.62-.54,9.95-.17-1.53-.34-2.9-.38-3.09-1.22-5.28-6.68-14.79-12.74-15.3a7.2,7.2,0,0,0-7.6,7.54c.07,4.29,3.57,8.25,6.85,10.64s11.56,4.31,13.75,4.78c0,1.28-.08,2.55-.11,3.83-.13,6.15-.23,12.28-.52,18.28-.1,2.12-.28,4.2-.44,6.29-.16-1.36-.3-2.51-.34-2.68-1.22-5.29-6.68-14.79-12.74-15.31-4.36-.37-7.66,3.35-7.6,7.55s3.58,8.24,6.85,10.64,10.76,4.12,13.35,4.69c-.23,2.13-.47,4.26-.79,6.31-.26,1.4-.4,2.76-.74,4.15s-.59,2.74-.89,4.1c-.66,2.58-1.33,5.26-2,7.76-.49,1.75-1,3.41-1.47,5.08.13-2.11.28-6.24.26-6.58a28,28,0,0,0-5-13.16,8.3,8.3,0,0,0-.26-1.57,7.2,7.2,0,0,0-9.35-5.22c-5.69,2.13-8.39,12.75-8.14,18.17,0,.32.56,3.78,1,5.95-.42-1.24-.81-2.46-1.26-3.73-.87-2.52-1.81-5-2.81-7.71l-1.6-3.88c-.51-1.3-1.21-2.62-1.81-4-1.47-3-3.1-6.06-4.81-9.07,2.21-.76,10-3.59,13-6.37s6-7.12,5.51-11.38a7.2,7.2,0,0,0-8.45-6.58c-6,1.25-10.23,11.34-10.8,16.74,0,.33,0,4.25,0,6.4-1.05-1.79-2.08-3.59-3.19-5.38-3.22-5.15-6.64-10.26-10-15.37q-1.54-2.36-3.07-4.71c.79-.27,10.14-3.43,13.47-6.54,3-2.77,6-7.12,5.51-11.39a7.19,7.19,0,0,0-8.45-6.57c-5.95,1.24-10.23,11.33-10.8,16.73,0,.41,0,6,.08,7.48-2.25-3.46-4.46-6.93-6.5-10.44a125.26,125.26,0,0,1-7.4-14.67c.37-.12,10.14-3.37,13.55-6.56,3-2.77,6-7.12,5.51-11.39a7.18,7.18,0,0,0-8.44-6.57c-5.95,1.24-10.23,11.33-10.81,16.73,0,.35,0,4.65.06,6.69l-.34.08a92.31,92.31,0,0,1-4.66-15.86c-.64-3-1.07-5.84-1.44-8.65,1.89-.42,10.47-2.43,13.86-5s6.7-6.42,6.73-10.71a7.19,7.19,0,0,0-7.68-7.46c-6,.58-11.41,10.14-12.57,15.44-.07.29-.39,3.29-.59,5.48-.14-1.27-.31-2.58-.43-3.8-.44-4.57-.56-8.79-.64-12.52,0-2.13,0-4.05,0-5.85,1.63-1.37,8.15-7,9.95-10.74s3-8.79,1-12.6-6.58-5.47-10.25-3.09c-5.1,3.31-5.46,14.26-4.05,19.5.13.46,2.85,7.32,2.93,7.25l.1-.08c-.07,1.73-.12,3.58-.14,5.61,0,3.74,0,8,.37,12.58a129.69,129.69,0,0,0,1.8,14.79,94,94,0,0,0,4.36,16.1l.07.18c-1.09-1.4-4.29-5.21-4.57-5.48-3.94-3.74-13.74-8.65-19.07-5.74a7.19,7.19,0,0,0-2.18,10.48c2.43,3.54,7.53,4.91,11.58,5.1,4.57.22,13.77-3.46,14.5-3.76a128.21,128.21,0,0,0,7.31,15.34c1.6,2.89,3.3,5.75,5,8.6-1-1.18-1.88-2.23-2-2.36-3.94-3.74-13.74-8.65-19.07-5.74-3.85,2.09-4.55,7-2.18,10.48s7.53,4.9,11.58,5.1,12-2.79,14.1-3.6l2,3.25c3.28,5.2,6.58,10.37,9.65,15.54,1.09,1.82,2.09,3.65,3.1,5.48-.88-1.05-1.63-1.92-1.76-2-3.93-3.74-13.73-8.65-19.07-5.74a7.19,7.19,0,0,0-2.17,10.48c2.42,3.54,7.53,4.91,11.57,5.1s11.25-2.5,13.73-3.46c1,1.91,2,3.82,2.82,5.71.56,1.3,1.19,2.52,1.67,3.86s1,2.62,1.52,3.91c.88,2.53,1.79,5.13,2.58,7.61.57,1.72,1.07,3.38,1.58,5-1.06-1.83-3.2-5.36-3.42-5.63-3.32-4.29-12.26-10.63-18-8.56a7.19,7.19,0,0,0-3.74,10c1.86,3.86,6.7,6,10.68,6.79,4.37.88,13.66-1.23,14.82-1.5.84,2.76,1.63,5.45,2.33,8,1.83,6.57,3.25,12.37,4.32,17.06h4.11c-1.21-4.87-2.84-11-5-18.06-.84-2.8-1.8-5.78-2.8-8.82a79.14,79.14,0,0,0,7.89-4.7c3.42,3.05,11.74,6.19,12.81,6.59-.82,2.76-1.64,5.44-2.46,7.95-2.16,6.7-4.24,12.47-6,17h4.23c1.54-4.42,3.33-9.8,5.17-16,.84-2.8,1.69-5.81,2.53-8.9,1.16.12,10.66,1.1,14.9-.3,3.85-1.28,8.4-4,9.78-8a7.2,7.2,0,0,0-4.92-9.51c-5.93-1.36-14,6-16.82,10.67-.17.27-1.61,3.45-2.49,5.48.33-1.27.67-2.5,1-3.81.68-2.58,1.27-5.18,1.92-8,.26-1.36.53-2.74.8-4.12s.44-2.86.67-4.3c.46-3.35.76-6.77,1-10.22,2.26.58,10.33,2.53,14.35,1.85s8.9-2.65,10.88-6.45.64-8.53-3.43-10.14c-5.64-2.25-14.78,3.81-18.24,8-.21.26-2.35,3.54-3.49,5.37.12-2.08.25-4.15.3-6.25.16-6.07.13-12.22.12-18.35,0-1.88,0-3.75,0-5.63.8.22,10.34,2.74,14.84,2,4-.68,8.9-2.65,10.88-6.46A7.2,7.2,0,0,0,714.5,345c-5.65-2.24-14.79,3.81-18.24,8-.26.31-3.34,5-4.06,6.28,0-4.13.1-8.24.33-12.3a127.61,127.61,0,0,1,1.92-16.31c.38.1,10.32,2.78,14.93,2,4-.68,8.9-2.65,10.88-6.46a7.19,7.19,0,0,0-3.42-10.14c-5.65-2.24-14.79,3.81-18.24,8-.23.27-2.57,3.87-3.65,5.61l-.32-.13a93.38,93.38,0,0,1,4.85-15.79c1.12-2.83,2.34-5.47,3.58-8,1.81.69,10.07,3.75,14.29,3.5,4-.23,9.14-1.65,11.53-5.22s1.58-8.4-2.29-10.45c-5.37-2.86-15.11,2.16-19,5.94-.21.2-2.13,2.53-3.51,4.25.58-1.14,1.16-2.33,1.74-3.41,2.16-4.05,4.38-7.64,6.38-10.79,1.15-1.79,2.22-3.38,3.24-4.86,2.12-.25,10.66-1.35,14.23-3.47s7.34-5.68,7.82-9.95A7.19,7.19,0,0,0,730.63,263.07Z" style="fill: rgb(255, 255, 255); transform-origin: 663.233px 354.902px;" id="elgxzygn7khe" class="animable"></path><g id="elmend0l6kr4d"><path d="M595.09,312.84c4.53,1.47,15.12.19,15.13.19s-3-6.73-3.21-7.13c-2.8-4.65-11-12-16.87-10.57-4.27,1-6.24,5.56-4.87,9.53S591.24,311.58,595.09,312.84Z" style="fill: rgb(255, 255, 255); opacity: 0.3; transform-origin: 597.53px 304.348px;" class="animable" id="elecxexflq344"></path></g><g id="elapkt56l6jp"><path d="M702.71,304.65c.1.05,1.24-7.25,1.26-7.72.22-5.42-2.54-16-8.25-18.12a7.19,7.19,0,0,0-9.32,5.26c-1.06,4.16,1.27,8.9,3.8,12.07C693.16,299.87,702.7,304.64,702.71,304.65Z" style="fill: rgb(255, 255, 255); opacity: 0.3; transform-origin: 695.06px 291.541px;" class="animable" id="eljhq30yt421f"></path></g><g id="el25y4plaokel"><path d="M730.63,263.07c-6.08-.06-12.42,8.88-14.13,14-.15.45-1.67,7.67-1.56,7.66h.13c-1,1.4-2.08,2.92-3.21,4.6-2.07,3.12-4.38,6.66-6.63,10.69a126.54,126.54,0,0,0-6.66,13.34,93.29,93.29,0,0,0-5.25,15.83c0,.06,0,.13,0,.19-.14-1.77-.7-6.72-.79-7.1-1.22-5.28-6.68-14.79-12.74-15.3a7.2,7.2,0,0,0-7.6,7.54c.07,4.29,3.58,8.25,6.85,10.64,3.69,2.7,13.39,4.71,14.17,4.87a126.38,126.38,0,0,0-2.37,16.82c-.26,3.29-.42,6.62-.54,9.95-.17-1.53-.34-2.9-.38-3.09-1.22-5.28-6.68-14.79-12.74-15.3a7.2,7.2,0,0,0-7.6,7.54c.07,4.29,3.57,8.25,6.85,10.64s11.56,4.31,13.75,4.78c0,1.28-.08,2.55-.11,3.83-.13,6.15-.23,12.28-.52,18.28-.1,2.12-.28,4.2-.44,6.29-.16-1.36-.3-2.51-.34-2.68-1.22-5.29-6.68-14.79-12.74-15.31-4.36-.37-7.66,3.35-7.6,7.55s3.58,8.24,6.85,10.64,10.76,4.12,13.35,4.69c-.23,2.13-.47,4.26-.79,6.31-.26,1.4-.4,2.76-.74,4.15s-.59,2.74-.89,4.1c-.66,2.58-1.33,5.26-2,7.76-.49,1.75-1,3.41-1.47,5.08.13-2.11.28-6.24.26-6.58a28,28,0,0,0-5-13.16,8.3,8.3,0,0,0-.26-1.57,7.2,7.2,0,0,0-9.35-5.22c-5.69,2.13-8.39,12.75-8.14,18.17,0,.32.56,3.78,1,5.95-.42-1.24-.81-2.46-1.26-3.73-.87-2.52-1.81-5-2.81-7.71l-1.6-3.88c-.51-1.3-1.21-2.62-1.81-4-1.47-3-3.1-6.06-4.81-9.07,2.21-.76,10-3.59,13-6.37s6-7.12,5.51-11.38a7.2,7.2,0,0,0-8.45-6.58c-6,1.25-10.23,11.34-10.8,16.74,0,.33,0,4.25,0,6.4-1.05-1.79-2.08-3.59-3.19-5.38-3.22-5.15-6.64-10.26-10-15.37q-1.54-2.36-3.07-4.71c.79-.27,10.14-3.43,13.47-6.54,3-2.77,6-7.12,5.51-11.39a7.19,7.19,0,0,0-8.45-6.57c-5.95,1.24-10.23,11.33-10.8,16.73,0,.41,0,6,.08,7.48-2.25-3.46-4.46-6.93-6.5-10.44a125.26,125.26,0,0,1-7.4-14.67c.37-.12,10.14-3.37,13.55-6.56,3-2.77,6-7.12,5.51-11.39a7.18,7.18,0,0,0-8.44-6.57c-5.95,1.24-10.23,11.33-10.81,16.73,0,.35,0,4.65.06,6.69l-.34.08a92.31,92.31,0,0,1-4.66-15.86c-.64-3-1.07-5.84-1.44-8.65,1.89-.42,10.47-2.43,13.86-5s6.7-6.42,6.73-10.71a7.19,7.19,0,0,0-7.68-7.46c-6,.58-11.41,10.14-12.57,15.44-.07.29-.39,3.29-.59,5.48-.14-1.27-.31-2.58-.43-3.8-.44-4.57-.56-8.79-.64-12.52,0-2.13,0-4.05,0-5.85,1.63-1.37,8.15-7,9.95-10.74s3-8.79,1-12.6-6.58-5.47-10.25-3.09c-5.1,3.31-5.46,14.26-4.05,19.5.13.46,2.85,7.32,2.93,7.25l.1-.08c-.07,1.73-.12,3.58-.14,5.61,0,3.74,0,8,.37,12.58a129.69,129.69,0,0,0,1.8,14.79,94,94,0,0,0,4.36,16.1l.07.18c-1.09-1.4-4.29-5.21-4.57-5.48-3.94-3.74-13.74-8.65-19.07-5.74a7.19,7.19,0,0,0-2.18,10.48c2.43,3.54,7.53,4.91,11.58,5.1,4.57.22,13.77-3.46,14.5-3.76a128.21,128.21,0,0,0,7.31,15.34c1.6,2.89,3.3,5.75,5,8.6-1-1.18-1.88-2.23-2-2.36-3.94-3.74-13.74-8.65-19.07-5.74-3.85,2.09-4.55,7-2.18,10.48s7.53,4.9,11.58,5.1,12-2.79,14.1-3.6l2,3.25c3.28,5.2,6.58,10.37,9.65,15.54,1.09,1.82,2.09,3.65,3.1,5.48-.88-1.05-1.63-1.92-1.76-2-3.93-3.74-13.73-8.65-19.07-5.74a7.19,7.19,0,0,0-2.17,10.48c2.42,3.54,7.53,4.91,11.57,5.1s11.25-2.5,13.73-3.46c1,1.91,2,3.82,2.82,5.71.56,1.3,1.19,2.52,1.67,3.86s1,2.62,1.52,3.91c.88,2.53,1.79,5.13,2.58,7.61.57,1.72,1.07,3.38,1.58,5-1.06-1.83-3.2-5.36-3.42-5.63-3.32-4.29-12.26-10.63-18-8.56a7.19,7.19,0,0,0-3.74,10c1.86,3.86,6.7,6,10.68,6.79,4.37.88,13.66-1.23,14.82-1.5.84,2.76,1.63,5.45,2.33,8,1.83,6.57,3.25,12.37,4.32,17.06h4.11c-1.21-4.87-2.84-11-5-18.06-.84-2.8-1.8-5.78-2.8-8.82a79.14,79.14,0,0,0,7.89-4.7c3.42,3.05,11.74,6.19,12.81,6.59-.82,2.76-1.64,5.44-2.46,7.95-2.16,6.7-4.24,12.47-6,17h4.23c1.54-4.42,3.33-9.8,5.17-16,.84-2.8,1.69-5.81,2.53-8.9,1.16.12,10.66,1.1,14.9-.3,3.85-1.28,8.4-4,9.78-8a7.2,7.2,0,0,0-4.92-9.51c-5.93-1.36-14,6-16.82,10.67-.17.27-1.61,3.45-2.49,5.48.33-1.27.67-2.5,1-3.81.68-2.58,1.27-5.18,1.92-8,.26-1.36.53-2.74.8-4.12s.44-2.86.67-4.3c.46-3.35.76-6.77,1-10.22,2.26.58,10.33,2.53,14.35,1.85s8.9-2.65,10.88-6.45.64-8.53-3.43-10.14c-5.64-2.25-14.78,3.81-18.24,8-.21.26-2.35,3.54-3.49,5.37.12-2.08.25-4.15.3-6.25.16-6.07.13-12.22.12-18.35,0-1.88,0-3.75,0-5.63.8.22,10.34,2.74,14.84,2,4-.68,8.9-2.65,10.88-6.46A7.2,7.2,0,0,0,714.5,345c-5.65-2.24-14.79,3.81-18.24,8-.26.31-3.34,5-4.06,6.28,0-4.13.1-8.24.33-12.3a127.61,127.61,0,0,1,1.92-16.31c.38.1,10.32,2.78,14.93,2,4-.68,8.9-2.65,10.88-6.46a7.19,7.19,0,0,0-3.42-10.14c-5.65-2.24-14.79,3.81-18.24,8-.23.27-2.57,3.87-3.65,5.61l-.32-.13a93.38,93.38,0,0,1,4.85-15.79c1.12-2.83,2.34-5.47,3.58-8,1.81.69,10.07,3.75,14.29,3.5,4-.23,9.14-1.65,11.53-5.22s1.58-8.4-2.29-10.45c-5.37-2.86-15.11,2.16-19,5.94-.21.2-2.13,2.53-3.51,4.25.58-1.14,1.16-2.33,1.74-3.41,2.16-4.05,4.38-7.64,6.38-10.79,1.15-1.79,2.22-3.38,3.24-4.86,2.12-.25,10.66-1.35,14.23-3.47s7.34-5.68,7.82-9.95A7.19,7.19,0,0,0,730.63,263.07Z" style="fill: rgb(255, 255, 255); opacity: 0.3; transform-origin: 663.233px 354.902px;" class="animable" id="el4zgrhqalwpe"></path></g><path d="M359.71,203.56c0,.1,7.22.56,7.69.53,5.34-.28,15.49-4,17-9.74a7.08,7.08,0,0,0-6-8.66c-4.17-.67-8.61,2.05-11.5,4.82C363.53,193.76,359.72,203.56,359.71,203.56Z" style="fill: rgb(255, 255, 255); transform-origin: 372.151px 194.839px;" id="elz9cylrwvtne" class="animable"></path><path d="M341.85,98.72c-1,4.57,1.2,14.85,1.2,14.86s6.33-3.52,6.7-3.8c4.3-3.17,10.74-11.84,8.83-17.52-1.37-4.09-6-5.61-9.8-3.9S342.73,94.82,341.85,98.72Z" style="fill: rgb(255, 255, 255); transform-origin: 350.257px 100.624px;" id="el48ahsjrwmfo" class="animable"></path><path d="M312.64,108.05c.21,4.5,4.66,13.19,5,13.88a126.37,126.37,0,0,0-14.38,8.57c-2.69,1.83-5.34,3.76-8,5.73,1.07-1.08,2-2,2.14-2.2,3.31-4.2,7.23-14.26,3.89-19.23a7.09,7.09,0,0,0-10.48-1.18c-3.25,2.7-4.13,7.84-3.95,11.83S290.72,137,291.71,139c-1,.76-2,1.51-3,2.28-4.8,3.7-9.57,7.4-14.36,10.89-1.69,1.23-3.4,2.38-5.1,3.54.95-1,1.74-1.78,1.85-1.91,3.3-4.2,7.23-14.27,3.89-19.24a7.09,7.09,0,0,0-10.49-1.17c-3.25,2.7-4.12,7.83-3.94,11.82S264,156,265.19,158.33c-1.78,1.13-3.56,2.26-5.34,3.28-1.23.67-2.36,1.4-3.64,2l-3.7,1.84c-2.39,1.09-4.86,2.23-7.22,3.23-1.64.71-3.22,1.35-4.8,2,1.69-1.21,5-3.64,5.21-3.87,3.91-3.65,9.31-13,6.76-18.42a7.09,7.09,0,0,0-10.18-2.76c-3.63,2.18-5.27,7.12-5.7,11.09-.46,4.38,2.45,13.3,2.83,14.41-2.63,1.07-5.2,2.1-7.63,3-8.42,3.21-15.55,5.57-20.56,7.16l.77,4,.44-.15c5-1.71,12.2-4.25,20.65-7.69,2.67-1.08,5.5-2.29,8.4-3.56a79.19,79.19,0,0,0,5.33,7.32c-2.68,3.64-5,12.08-5.3,13.18-2.78-.56-5.48-1.12-8-1.69-8.8-2-16.06-3.93-21.11-5.38l.84,4.38c5,1.28,11.65,2.89,19.53,4.47,2.82.57,5.85,1.13,9,1.67,0,1.15-.11,10.55,1.65,14.59,1.6,3.66,4.66,7.87,8.77,8.86a7.09,7.09,0,0,0,8.88-5.7c.8-5.93-7.17-13.22-12-15.53-.28-.13-3.54-1.26-5.6-1.94,1.27.22,2.51.44,3.82.64,2.6.42,5.2.77,8,1.15l4.12.41c1.37.17,2.84.17,4.27.27,3.33.14,6.71.13,10.12,0-.36,2.28-1.54,10.37-.51,14.25s3.42,8.49,7.33,10.09a7.09,7.09,0,0,0,9.64-4.29c1.69-5.74-5.09-14.16-9.51-17.16-.28-.19-3.69-2-5.59-3,2.05-.07,4.09-.13,6.16-.27,6-.4,12-1,18-1.55,1.85-.18,3.68-.33,5.53-.48-.14.8-1.75,10.4-.59,14.74,1,3.86,3.41,8.49,7.33,10.09a7.08,7.08,0,0,0,9.63-4.29c1.69-5.74-5.08-14.16-9.5-17.16-.34-.23-5.26-2.82-6.54-3.41,4.05-.35,8.1-.66,12.09-.8a125.64,125.64,0,0,1,16.19.4c-.07.38-1.79,10.38-.6,14.83,1,3.86,3.41,8.49,7.32,10.08s8.43-.14,9.64-4.28c1.69-5.75-5.08-14.16-9.51-17.17-.29-.19-4-2.17-5.83-3.06l.09-.33a90.64,90.64,0,0,1,15.94,3.32c2.87.83,5.57,1.79,8.18,2.78-.51,1.83-2.76,10.22-2.13,14.34.6,4,2.46,8.82,6.17,10.83a7.09,7.09,0,0,0,10.06-3.2c2.3-5.52-3.51-14.63-7.57-18.1-.22-.19-2.68-1.86-4.49-3.06,1.17.47,2.39.93,3.5,1.39,4.18,1.75,7.9,3.61,11.18,5.28,1.85,1,3.51,1.87,5.06,2.74.43,2.06,2.29,10.33,4.7,13.64s6.24,6.69,10.47,6.76a7.09,7.09,0,0,0,7.45-7.47c-.5-6-9.85-11.37-15.06-12.58-.45-.11-7.68-.94-7.66-.83l0,.13c-1.47-.87-3.06-1.78-4.81-2.74-3.25-1.74-6.94-3.68-11.1-5.53a125.93,125.93,0,0,0-13.69-5.31,92.78,92.78,0,0,0-16-3.71h-.2c1.73-.31,6.53-1.31,6.9-1.43,5.07-1.68,13.9-7.91,13.85-13.9a7.09,7.09,0,0,0-8.09-6.76c-4.2.46-7.77,4.25-9.82,7.68-2.31,3.87-3.4,13.58-3.48,14.35a126,126,0,0,0-16.72-.79c-3.26.05-6.53.19-9.81.38,1.48-.31,2.81-.59,3-.65,5.08-1.68,13.9-7.91,13.85-13.9a7.09,7.09,0,0,0-8.09-6.77c-4.2.46-7.76,4.26-9.81,7.69s-3.18,11.74-3.44,13.93l-3.77.24c-6,.44-12.06.89-18,1.16-2.09.1-4.15.11-6.21.14,1.32-.28,2.43-.52,2.6-.57,5.07-1.68,13.9-7.91,13.85-13.9a7.09,7.09,0,0,0-8.09-6.77c-4.2.46-7.77,4.26-9.82,7.69s-3.06,10.93-3.38,13.53c-2.11,0-4.22-.07-6.27-.2-1.39-.12-2.74-.14-4.13-.34l-4.11-.51c-2.6-.41-5.28-.82-7.8-1.29-1.76-.32-3.43-.65-5.12-1,2.08-.07,6.15-.3,6.49-.36a27.51,27.51,0,0,0,12.44-6.15,8.72,8.72,0,0,0,1.52-.4,7.09,7.09,0,0,0,4.27-9.65c-2.61-5.39-13.28-7.07-18.58-6.33-.31.05-3.65.9-5.74,1.47,1.18-.52,2.33-1,3.54-1.57,2.4-1.08,4.76-2.23,7.31-3.46l3.66-1.92c1.23-.62,2.46-1.43,3.71-2.14,2.85-1.72,5.66-3.6,8.45-5.55,1,2.1,4.44,9.5,7.44,12.16s7.53,5.2,11.68,4.37a7.08,7.08,0,0,0,5.67-8.89c-1.76-5.72-12-9-17.4-9.07-.33,0-4.17.38-6.28.63,1.67-1.19,3.34-2.37,5-3.63,4.76-3.62,9.46-7.44,14.17-11.23,1.44-1.17,2.89-2.31,4.34-3.45.33.75,4.28,9.64,7.64,12.62,3,2.65,7.53,5.2,11.68,4.37a7.09,7.09,0,0,0,5.67-8.89c-1.76-5.73-12.05-9-17.4-9.07-.4,0-5.93.55-7.33.76,3.19-2.53,6.39-5,9.65-7.34A124.24,124.24,0,0,1,318,123.31c.15.35,4.23,9.64,7.68,12.7,3,2.65,7.53,5.19,11.67,4.36a7.09,7.09,0,0,0,5.68-8.89c-1.76-5.72-12.06-9-17.4-9.07-.35,0-4.57.42-6.57.66,0-.18,0-.14-.1-.32a91.42,91.42,0,0,1,15.13-6c2.86-.89,5.64-1.58,8.36-2.2.58,1.81,3.34,10,6.13,13.14s6.92,6,11.13,5.63a7.1,7.1,0,0,0,6.62-8.22c-1.13-5.88-11-10.27-16.3-10.92-.29,0-3.27-.08-5.43-.07,1.23-.26,2.5-.55,3.68-.77,4.45-.85,8.58-1.36,12.23-1.77,2.09-.22,4-.38,5.74-.51,1.5,1.48,7.61,7.35,11.45,8.78s8.89,2.14,12.46-.13a7.09,7.09,0,0,0,2.09-10.34c-3.71-4.7-14.49-4-19.5-2.19-.44.16-6.92,3.46-6.84,3.54l.09.09c-1.71.09-3.53.2-5.52.37-3.68.34-7.82.75-12.31,1.51a126.23,126.23,0,0,0-14.35,3.12,92.29,92.29,0,0,0-15.4,5.74l-.17.1c1.27-1.21,4.72-4.7,5-5,3.31-4.2,7.23-14.26,3.89-19.23a7.09,7.09,0,0,0-10.48-1.18C313.34,98.92,312.46,104.06,312.64,108.05Z" style="fill: rgb(255, 255, 255); transform-origin: 307.16px 164.5px;" id="elhjmi6lse9t" class="animable"></path><g id="elmgb5izktbyo"><path d="M341.85,98.72c-1,4.57,1.2,14.85,1.2,14.86s6.33-3.52,6.7-3.8c4.3-3.17,10.74-11.84,8.83-17.52-1.37-4.09-6-5.61-9.8-3.9S342.73,94.82,341.85,98.72Z" style="fill: rgb(255, 255, 255); opacity: 0.3; transform-origin: 350.257px 100.624px;" class="animable" id="elhdrlv5uhsja"></path></g><g id="elt6qxccs3l1h"><path d="M359.71,203.56c0,.1,7.22.56,7.69.53,5.34-.28,15.49-4,17-9.74a7.08,7.08,0,0,0-6-8.66c-4.17-.67-8.61,2.05-11.5,4.82C363.53,193.76,359.72,203.56,359.71,203.56Z" style="fill: rgb(255, 255, 255); opacity: 0.3; transform-origin: 372.151px 194.839px;" class="animable" id="el80ciym3lrfn"></path></g><g id="elkixe29c29n"><path d="M312.64,108.05c.21,4.5,4.66,13.19,5,13.88a126.37,126.37,0,0,0-14.38,8.57c-2.69,1.83-5.34,3.76-8,5.73,1.07-1.08,2-2,2.14-2.2,3.31-4.2,7.23-14.26,3.89-19.23a7.09,7.09,0,0,0-10.48-1.18c-3.25,2.7-4.13,7.84-3.95,11.83S290.72,137,291.71,139c-1,.76-2,1.51-3,2.28-4.8,3.7-9.57,7.4-14.36,10.89-1.69,1.23-3.4,2.38-5.1,3.54.95-1,1.74-1.78,1.85-1.91,3.3-4.2,7.23-14.27,3.89-19.24a7.09,7.09,0,0,0-10.49-1.17c-3.25,2.7-4.12,7.83-3.94,11.82S264,156,265.19,158.33c-1.78,1.13-3.56,2.26-5.34,3.28-1.23.67-2.36,1.4-3.64,2l-3.7,1.84c-2.39,1.09-4.86,2.23-7.22,3.23-1.64.71-3.22,1.35-4.8,2,1.69-1.21,5-3.64,5.21-3.87,3.91-3.65,9.31-13,6.76-18.42a7.09,7.09,0,0,0-10.18-2.76c-3.63,2.18-5.27,7.12-5.7,11.09-.46,4.38,2.45,13.3,2.83,14.41-2.63,1.07-5.2,2.1-7.63,3-8.42,3.21-15.55,5.57-20.56,7.16l.77,4,.44-.15c5-1.71,12.2-4.25,20.65-7.69,2.67-1.08,5.5-2.29,8.4-3.56a79.19,79.19,0,0,0,5.33,7.32c-2.68,3.64-5,12.08-5.3,13.18-2.78-.56-5.48-1.12-8-1.69-8.8-2-16.06-3.93-21.11-5.38l.84,4.38c5,1.28,11.65,2.89,19.53,4.47,2.82.57,5.85,1.13,9,1.67,0,1.15-.11,10.55,1.65,14.59,1.6,3.66,4.66,7.87,8.77,8.86a7.09,7.09,0,0,0,8.88-5.7c.8-5.93-7.17-13.22-12-15.53-.28-.13-3.54-1.26-5.6-1.94,1.27.22,2.51.44,3.82.64,2.6.42,5.2.77,8,1.15l4.12.41c1.37.17,2.84.17,4.27.27,3.33.14,6.71.13,10.12,0-.36,2.28-1.54,10.37-.51,14.25s3.42,8.49,7.33,10.09a7.09,7.09,0,0,0,9.64-4.29c1.69-5.74-5.09-14.16-9.51-17.16-.28-.19-3.69-2-5.59-3,2.05-.07,4.09-.13,6.16-.27,6-.4,12-1,18-1.55,1.85-.18,3.68-.33,5.53-.48-.14.8-1.75,10.4-.59,14.74,1,3.86,3.41,8.49,7.33,10.09a7.08,7.08,0,0,0,9.63-4.29c1.69-5.74-5.08-14.16-9.5-17.16-.34-.23-5.26-2.82-6.54-3.41,4.05-.35,8.1-.66,12.09-.8a125.64,125.64,0,0,1,16.19.4c-.07.38-1.79,10.38-.6,14.83,1,3.86,3.41,8.49,7.32,10.08s8.43-.14,9.64-4.28c1.69-5.75-5.08-14.16-9.51-17.17-.29-.19-4-2.17-5.83-3.06l.09-.33a90.64,90.64,0,0,1,15.94,3.32c2.87.83,5.57,1.79,8.18,2.78-.51,1.83-2.76,10.22-2.13,14.34.6,4,2.46,8.82,6.17,10.83a7.09,7.09,0,0,0,10.06-3.2c2.3-5.52-3.51-14.63-7.57-18.1-.22-.19-2.68-1.86-4.49-3.06,1.17.47,2.39.93,3.5,1.39,4.18,1.75,7.9,3.61,11.18,5.28,1.85,1,3.51,1.87,5.06,2.74.43,2.06,2.29,10.33,4.7,13.64s6.24,6.69,10.47,6.76a7.09,7.09,0,0,0,7.45-7.47c-.5-6-9.85-11.37-15.06-12.58-.45-.11-7.68-.94-7.66-.83l0,.13c-1.47-.87-3.06-1.78-4.81-2.74-3.25-1.74-6.94-3.68-11.1-5.53a125.93,125.93,0,0,0-13.69-5.31,92.78,92.78,0,0,0-16-3.71h-.2c1.73-.31,6.53-1.31,6.9-1.43,5.07-1.68,13.9-7.91,13.85-13.9a7.09,7.09,0,0,0-8.09-6.76c-4.2.46-7.77,4.25-9.82,7.68-2.31,3.87-3.4,13.58-3.48,14.35a126,126,0,0,0-16.72-.79c-3.26.05-6.53.19-9.81.38,1.48-.31,2.81-.59,3-.65,5.08-1.68,13.9-7.91,13.85-13.9a7.09,7.09,0,0,0-8.09-6.77c-4.2.46-7.76,4.26-9.81,7.69s-3.18,11.74-3.44,13.93l-3.77.24c-6,.44-12.06.89-18,1.16-2.09.1-4.15.11-6.21.14,1.32-.28,2.43-.52,2.6-.57,5.07-1.68,13.9-7.91,13.85-13.9a7.09,7.09,0,0,0-8.09-6.77c-4.2.46-7.77,4.26-9.82,7.69s-3.06,10.93-3.38,13.53c-2.11,0-4.22-.07-6.27-.2-1.39-.12-2.74-.14-4.13-.34l-4.11-.51c-2.6-.41-5.28-.82-7.8-1.29-1.76-.32-3.43-.65-5.12-1,2.08-.07,6.15-.3,6.49-.36a27.51,27.51,0,0,0,12.44-6.15,8.72,8.72,0,0,0,1.52-.4,7.09,7.09,0,0,0,4.27-9.65c-2.61-5.39-13.28-7.07-18.58-6.33-.31.05-3.65.9-5.74,1.47,1.18-.52,2.33-1,3.54-1.57,2.4-1.08,4.76-2.23,7.31-3.46l3.66-1.92c1.23-.62,2.46-1.43,3.71-2.14,2.85-1.72,5.66-3.6,8.45-5.55,1,2.1,4.44,9.5,7.44,12.16s7.53,5.2,11.68,4.37a7.08,7.08,0,0,0,5.67-8.89c-1.76-5.72-12-9-17.4-9.07-.33,0-4.17.38-6.28.63,1.67-1.19,3.34-2.37,5-3.63,4.76-3.62,9.46-7.44,14.17-11.23,1.44-1.17,2.89-2.31,4.34-3.45.33.75,4.28,9.64,7.64,12.62,3,2.65,7.53,5.2,11.68,4.37a7.09,7.09,0,0,0,5.67-8.89c-1.76-5.73-12.05-9-17.4-9.07-.4,0-5.93.55-7.33.76,3.19-2.53,6.39-5,9.65-7.34A124.24,124.24,0,0,1,318,123.31c.15.35,4.23,9.64,7.68,12.7,3,2.65,7.53,5.19,11.67,4.36a7.09,7.09,0,0,0,5.68-8.89c-1.76-5.72-12.06-9-17.4-9.07-.35,0-4.57.42-6.57.66,0-.18,0-.14-.1-.32a91.42,91.42,0,0,1,15.13-6c2.86-.89,5.64-1.58,8.36-2.2.58,1.81,3.34,10,6.13,13.14s6.92,6,11.13,5.63a7.1,7.1,0,0,0,6.62-8.22c-1.13-5.88-11-10.27-16.3-10.92-.29,0-3.27-.08-5.43-.07,1.23-.26,2.5-.55,3.68-.77,4.45-.85,8.58-1.36,12.23-1.77,2.09-.22,4-.38,5.74-.51,1.5,1.48,7.61,7.35,11.45,8.78s8.89,2.14,12.46-.13a7.09,7.09,0,0,0,2.09-10.34c-3.71-4.7-14.49-4-19.5-2.19-.44.16-6.92,3.46-6.84,3.54l.09.09c-1.71.09-3.53.2-5.52.37-3.68.34-7.82.75-12.31,1.51a126.23,126.23,0,0,0-14.35,3.12,92.29,92.29,0,0,0-15.4,5.74l-.17.1c1.27-1.21,4.72-4.7,5-5,3.31-4.2,7.23-14.26,3.89-19.23a7.09,7.09,0,0,0-10.48-1.18C313.34,98.92,312.46,104.06,312.64,108.05Z" style="fill: rgb(255, 255, 255); opacity: 0.3; transform-origin: 307.16px 164.5px;" class="animable" id="elnfoe7gcz3i"></path></g></g><g id="freepik--Plant--inject-17" class="animable" style="transform-origin: 60.742px 402.565px;"><path d="M83,376.3c.06,0,1-4,1.07-4.24.38-3-.65-9.05-3.73-10.49a4,4,0,0,0-5.44,2.49c-.79,2.27.28,5,1.54,6.9C77.93,373.18,83,376.29,83,376.3Z" style="fill: #64A6D4; transform-origin: 79.3874px 368.765px;" id="elrwbqyyo9wv" class="animable"></path><path d="M22.7,375.74c2.45,1,8.41.82,8.42.82s-1.33-3.88-1.45-4.12c-1.34-2.72-5.54-7.18-8.9-6.69a4,4,0,0,0-3.16,5.08C18.2,373.16,20.61,374.86,22.7,375.74Z" style="fill: #64A6D4; transform-origin: 24.2825px 371.143px;" id="eltb8r6nwts3" class="animable"></path><path d="M25,393c2.53.34,7.83-1.27,8.25-1.4a71.83,71.83,0,0,0,3.34,8.89c.75,1.69,1.56,3.36,2.4,5-.5-.71-.94-1.33-1-1.41-2-2.27-7.23-5.47-10.34-4.11a4,4,0,0,0-1.71,5.74c1.18,2.08,4,3.09,6.2,3.39s6.83-1,8-1.34c.33.64.64,1.28,1,1.91,1.58,3.05,3.17,6.09,4.64,9.11.52,1.07,1,2.14,1.46,3.2-.44-.62-.81-1.14-.88-1.22-2-2.27-7.24-5.47-10.35-4.1a4,4,0,0,0-1.7,5.73c1.18,2.09,3.95,3.09,6.2,3.39s6.38-.85,7.81-1.27c.45,1.11.91,2.22,1.3,3.31.25.75.54,1.46.75,2.23l.66,2.25c.36,1.45.75,2.94,1.07,4.36.23,1,.43,1.93.64,2.88-.5-1.06-1.53-3.13-1.64-3.29-1.64-2.55-6.32-6.51-9.6-5.63A4,4,0,0,0,38.9,436c.85,2.24,3.45,3.66,5.62,4.29,2.39.7,7.67,0,8.33-.13.33,1.58.64,3.11.91,4.56,1,5,1.56,9.24,1.94,12.2l2.3,0c0-.09,0-.17,0-.26-.45-3-1.15-7.24-2.22-12.3-.34-1.6-.73-3.3-1.14-5.05a43.51,43.51,0,0,0,4.61-2.24c1.77,1.86,6.25,4,6.83,4.28-.59,1.5-1.17,2.95-1.75,4.31-2,4.72-3.81,8.57-5.12,11.25l2.53,0c1.22-2.66,2.78-6.21,4.45-10.45.61-1.52,1.22-3.15,1.84-4.84.64.13,5.88,1.12,8.31.54,2.2-.52,4.86-1.81,5.82-4a4,4,0,0,0-2.28-5.53c-3.24-1-8.11,2.67-9.88,5.14-.1.14-1.06,1.85-1.64,2.93.24-.69.49-1.36.74-2.07.49-1.41,1-2.82,1.44-4.35l.65-2.26c.23-.74.38-1.57.57-2.36.42-1.84.75-3.73,1-5.64,1.23.43,5.63,1.9,7.9,1.71s5.08-1.05,6.37-3.08a4,4,0,0,0-1.43-5.81c-3-1.52-8.41,1.42-10.54,3.59-.13.13-1.48,1.86-2.2,2.82.17-1.15.34-2.29.47-3.46.37-3.38.65-6.8.94-10.22.09-1,.19-2.09.29-3.13.43.16,5.63,2,8.17,1.81,2.25-.19,5.08-1.05,6.36-3.08a4,4,0,0,0-1.42-5.81c-3-1.52-8.42,1.42-10.54,3.58-.16.17-2.1,2.65-2.56,3.31.22-2.3.45-4.59.77-6.83a71,71,0,0,1,1.85-9c.2.08,5.61,2,8.22,1.83,2.25-.19,5.08-1.05,6.36-3.08a4,4,0,0,0-1.42-5.81c-3-1.52-8.42,1.42-10.54,3.58-.14.15-1.62,2-2.3,3l-.17-.09a51.49,51.49,0,0,1,3.45-8.56c.76-1.53,1.56-2.94,2.38-4.29,1,.47,5.43,2.56,7.79,2.63s5.17-.49,6.67-2.36a4,4,0,0,0-.78-5.94c-2.85-1.84-8.52.49-10.87,2.41-.13.11-1.31,1.31-2.15,2.2.37-.61.75-1.24,1.12-1.81,1.4-2.16,2.81-4.05,4.07-5.71.72-.94,1.4-1.78,2-2.55,1.19,0,6-.25,8.08-1.26s4.36-2.81,4.83-5.17a4,4,0,0,0-3.42-4.9c-3.38-.32-7.34,4.35-8.54,7.14-.1.24-1.29,4.19-1.23,4.19h.07c-.63.73-1.29,1.53-2,2.41-1.31,1.64-2.76,3.5-4.21,5.64A73.39,73.39,0,0,0,80.3,381a52.49,52.49,0,0,0-3.67,8.57.38.38,0,0,0,0,.1c0-1-.08-3.77-.11-4-.43-3-3-8.55-6.36-9.13a4,4,0,0,0-4.59,3.84c-.17,2.39,1.59,4.76,3.3,6.25,1.93,1.68,7.24,3.26,7.66,3.39a73.32,73.32,0,0,0-2.12,9.25c-.3,1.82-.55,3.67-.77,5.52,0-.86,0-1.63-.07-1.74-.42-3-3-8.55-6.36-9.13a4,4,0,0,0-4.59,3.84c-.17,2.39,1.6,4.76,3.3,6.25s6.24,2.95,7.43,3.32l-.24,2.13c-.36,3.41-.71,6.82-1.16,10.15-.15,1.18-.35,2.33-.54,3.48,0-.76,0-1.41-.06-1.5-.43-3-3-8.56-6.37-9.13a4,4,0,0,0-4.59,3.83c-.16,2.4,1.6,4.77,3.31,6.25s5.79,2.81,7.21,3.25c-.23,1.18-.46,2.35-.74,3.48-.21.77-.36,1.52-.61,2.27l-.69,2.25c-.49,1.4-1,2.86-1.51,4.22-.35.95-.7,1.85-1,2.76.17-1.17.45-3.46.45-3.65a15.53,15.53,0,0,0-2.19-7.57,4.39,4.39,0,0,0-.06-.89,4,4,0,0,0-5-3.35c-3.27.92-5.28,6.71-5.4,9.74,0,.17.13,2.12.24,3.35-.17-.71-.33-1.4-.52-2.13-.36-1.45-.77-2.89-1.2-4.43l-.7-2.24c-.22-.75-.55-1.52-.82-2.28-.68-1.77-1.44-3.53-2.25-5.28,1.26-.32,5.74-1.53,7.53-2.93S60.06,415.39,60,413a4,4,0,0,0-4.39-4.06c-3.37.41-6.23,5.82-6.81,8.8,0,.19-.21,2.37-.28,3.57-.5-1.05-1-2.1-1.52-3.15-1.55-3-3.21-6-4.85-9-.51-.92-1-1.84-1.49-2.77.45-.11,5.81-1.42,7.81-3,1.78-1.4,3.66-3.68,3.61-6.08a4,4,0,0,0-4.39-4.06c-3.37.41-6.24,5.83-6.81,8.81,0,.22-.29,3.36-.31,4.17-1.09-2-2.16-4.08-3.13-6.13A70.8,70.8,0,0,1,34,391.54c.21-.05,5.81-1.39,7.86-3,1.78-1.4,3.66-3.68,3.61-6.08a4,4,0,0,0-4.39-4.06c-3.38.41-6.24,5.83-6.81,8.8,0,.2-.23,2.59-.29,3.73l-.2,0A51.93,51.93,0,0,1,32,381.9c-.21-1.69-.32-3.31-.38-4.89,1.06-.14,5.94-.85,8-2.1s4-3.26,4.25-5.65a4,4,0,0,0-3.92-4.52c-3.39,0-6.83,5.11-7.73,8,0,.16-.37,1.82-.59,3,0-.72-.05-1.45-.06-2.14,0-2.57.11-4.92.24-7,.09-1.19.19-2.26.29-3.26,1-.68,4.87-3.51,6.06-5.5s2.08-4.76,1.17-7a4,4,0,0,0-5.56-2.2c-3,1.6-3.71,7.68-3.18,10.67,0,.26,1.24,4.21,1.29,4.17l.06,0c-.12,1-.24,2-.35,3.12-.18,2.08-.36,4.44-.39,7a70.92,70.92,0,0,0,.3,8.33,52.85,52.85,0,0,0,1.66,9.17l0,.1c-.55-.83-2.15-3.11-2.29-3.27-2-2.27-7.24-5.47-10.35-4.1a4,4,0,0,0-1.71,5.73C20,391.68,22.73,392.69,25,393Z" style="fill: #64A6D4; transform-origin: 61.1252px 402.565px;" id="elzppocis9i09" class="animable"></path><g id="elxjksi3lmgfh"><path d="M22.7,375.74c2.45,1,8.41.82,8.42.82s-1.33-3.88-1.45-4.12c-1.34-2.72-5.54-7.18-8.9-6.69a4,4,0,0,0-3.16,5.08C18.2,373.16,20.61,374.86,22.7,375.74Z" style="fill: #64A6D4; opacity: 0.3; transform-origin: 24.2825px 371.143px;" class="animable" id="el4sge8a64z9l"></path></g><g id="ele1j1fmdcg86"><path d="M83,376.3c.06,0,1-4,1.07-4.24.38-3-.65-9.05-3.73-10.49a4,4,0,0,0-5.44,2.49c-.79,2.27.28,5,1.54,6.9C77.93,373.18,83,376.29,83,376.3Z" style="fill: #64A6D4; opacity: 0.3; transform-origin: 79.3874px 368.765px;" class="animable" id="elm2ipshh9oeo"></path></g><g id="eldn80thhixnm"><path d="M25,393c2.53.34,7.83-1.27,8.25-1.4a71.83,71.83,0,0,0,3.34,8.89c.75,1.69,1.56,3.36,2.4,5-.5-.71-.94-1.33-1-1.41-2-2.27-7.23-5.47-10.34-4.11a4,4,0,0,0-1.71,5.74c1.18,2.08,4,3.09,6.2,3.39s6.83-1,8-1.34c.33.64.64,1.28,1,1.91,1.58,3.05,3.17,6.09,4.64,9.11.52,1.07,1,2.14,1.46,3.2-.44-.62-.81-1.14-.88-1.22-2-2.27-7.24-5.47-10.35-4.1a4,4,0,0,0-1.7,5.73c1.18,2.09,3.95,3.09,6.2,3.39s6.38-.85,7.81-1.27c.45,1.11.91,2.22,1.3,3.31.25.75.54,1.46.75,2.23l.66,2.25c.36,1.45.75,2.94,1.07,4.36.23,1,.43,1.93.64,2.88-.5-1.06-1.53-3.13-1.64-3.29-1.64-2.55-6.32-6.51-9.6-5.63A4,4,0,0,0,38.9,436c.85,2.24,3.45,3.66,5.62,4.29,2.39.7,7.67,0,8.33-.13.33,1.58.64,3.11.91,4.56,1,5,1.56,9.24,1.94,12.2l2.3,0c0-.09,0-.17,0-.26-.45-3-1.15-7.24-2.22-12.3-.34-1.6-.73-3.3-1.14-5.05a43.51,43.51,0,0,0,4.61-2.24c1.77,1.86,6.25,4,6.83,4.28-.59,1.5-1.17,2.95-1.75,4.31-2,4.72-3.81,8.57-5.12,11.25l2.53,0c1.22-2.66,2.78-6.21,4.45-10.45.61-1.52,1.22-3.15,1.84-4.84.64.13,5.88,1.12,8.31.54,2.2-.52,4.86-1.81,5.82-4a4,4,0,0,0-2.28-5.53c-3.24-1-8.11,2.67-9.88,5.14-.1.14-1.06,1.85-1.64,2.93.24-.69.49-1.36.74-2.07.49-1.41,1-2.82,1.44-4.35l.65-2.26c.23-.74.38-1.57.57-2.36.42-1.84.75-3.73,1-5.64,1.23.43,5.63,1.9,7.9,1.71s5.08-1.05,6.37-3.08a4,4,0,0,0-1.43-5.81c-3-1.52-8.41,1.42-10.54,3.59-.13.13-1.48,1.86-2.2,2.82.17-1.15.34-2.29.47-3.46.37-3.38.65-6.8.94-10.22.09-1,.19-2.09.29-3.13.43.16,5.63,2,8.17,1.81,2.25-.19,5.08-1.05,6.36-3.08a4,4,0,0,0-1.42-5.81c-3-1.52-8.42,1.42-10.54,3.58-.16.17-2.1,2.65-2.56,3.31.22-2.3.45-4.59.77-6.83a71,71,0,0,1,1.85-9c.2.08,5.61,2,8.22,1.83,2.25-.19,5.08-1.05,6.36-3.08a4,4,0,0,0-1.42-5.81c-3-1.52-8.42,1.42-10.54,3.58-.14.15-1.62,2-2.3,3l-.17-.09a51.49,51.49,0,0,1,3.45-8.56c.76-1.53,1.56-2.94,2.38-4.29,1,.47,5.43,2.56,7.79,2.63s5.17-.49,6.67-2.36a4,4,0,0,0-.78-5.94c-2.85-1.84-8.52.49-10.87,2.41-.13.11-1.31,1.31-2.15,2.2.37-.61.75-1.24,1.12-1.81,1.4-2.16,2.81-4.05,4.07-5.71.72-.94,1.4-1.78,2-2.55,1.19,0,6-.25,8.08-1.26s4.36-2.81,4.83-5.17a4,4,0,0,0-3.42-4.9c-3.38-.32-7.34,4.35-8.54,7.14-.1.24-1.29,4.19-1.23,4.19h.07c-.63.73-1.29,1.53-2,2.41-1.31,1.64-2.76,3.5-4.21,5.64A73.39,73.39,0,0,0,80.3,381a52.49,52.49,0,0,0-3.67,8.57.38.38,0,0,0,0,.1c0-1-.08-3.77-.11-4-.43-3-3-8.55-6.36-9.13a4,4,0,0,0-4.59,3.84c-.17,2.39,1.59,4.76,3.3,6.25,1.93,1.68,7.24,3.26,7.66,3.39a73.32,73.32,0,0,0-2.12,9.25c-.3,1.82-.55,3.67-.77,5.52,0-.86,0-1.63-.07-1.74-.42-3-3-8.55-6.36-9.13a4,4,0,0,0-4.59,3.84c-.17,2.39,1.6,4.76,3.3,6.25s6.24,2.95,7.43,3.32l-.24,2.13c-.36,3.41-.71,6.82-1.16,10.15-.15,1.18-.35,2.33-.54,3.48,0-.76,0-1.41-.06-1.5-.43-3-3-8.56-6.37-9.13a4,4,0,0,0-4.59,3.83c-.16,2.4,1.6,4.77,3.31,6.25s5.79,2.81,7.21,3.25c-.23,1.18-.46,2.35-.74,3.48-.21.77-.36,1.52-.61,2.27l-.69,2.25c-.49,1.4-1,2.86-1.51,4.22-.35.95-.7,1.85-1,2.76.17-1.17.45-3.46.45-3.65a15.53,15.53,0,0,0-2.19-7.57,4.39,4.39,0,0,0-.06-.89,4,4,0,0,0-5-3.35c-3.27.92-5.28,6.71-5.4,9.74,0,.17.13,2.12.24,3.35-.17-.71-.33-1.4-.52-2.13-.36-1.45-.77-2.89-1.2-4.43l-.7-2.24c-.22-.75-.55-1.52-.82-2.28-.68-1.77-1.44-3.53-2.25-5.28,1.26-.32,5.74-1.53,7.53-2.93S60.06,415.39,60,413a4,4,0,0,0-4.39-4.06c-3.37.41-6.23,5.82-6.81,8.8,0,.19-.21,2.37-.28,3.57-.5-1.05-1-2.1-1.52-3.15-1.55-3-3.21-6-4.85-9-.51-.92-1-1.84-1.49-2.77.45-.11,5.81-1.42,7.81-3,1.78-1.4,3.66-3.68,3.61-6.08a4,4,0,0,0-4.39-4.06c-3.37.41-6.24,5.83-6.81,8.81,0,.22-.29,3.36-.31,4.17-1.09-2-2.16-4.08-3.13-6.13A70.8,70.8,0,0,1,34,391.54c.21-.05,5.81-1.39,7.86-3,1.78-1.4,3.66-3.68,3.61-6.08a4,4,0,0,0-4.39-4.06c-3.38.41-6.24,5.83-6.81,8.8,0,.2-.23,2.59-.29,3.73l-.2,0A51.93,51.93,0,0,1,32,381.9c-.21-1.69-.32-3.31-.38-4.89,1.06-.14,5.94-.85,8-2.1s4-3.26,4.25-5.65a4,4,0,0,0-3.92-4.52c-3.39,0-6.83,5.11-7.73,8,0,.16-.37,1.82-.59,3,0-.72-.05-1.45-.06-2.14,0-2.57.11-4.92.24-7,.09-1.19.19-2.26.29-3.26,1-.68,4.87-3.51,6.06-5.5s2.08-4.76,1.17-7a4,4,0,0,0-5.56-2.2c-3,1.6-3.71,7.68-3.18,10.67,0,.26,1.24,4.21,1.29,4.17l.06,0c-.12,1-.24,2-.35,3.12-.18,2.08-.36,4.44-.39,7a70.92,70.92,0,0,0,.3,8.33,52.85,52.85,0,0,0,1.66,9.17l0,.1c-.55-.83-2.15-3.11-2.29-3.27-2-2.27-7.24-5.47-10.35-4.1a4,4,0,0,0-1.71,5.73C20,391.68,22.73,392.69,25,393Z" style="fill: #64A6D4; opacity: 0.3; transform-origin: 61.1252px 402.565px;" class="animable" id="eluhbhnugtz1e"></path></g></g><g id="freepik--Arrows--inject-17" class="animable" style="transform-origin: 439.625px 315.1px;"><path d="M316.48,346.43V242.52a14.16,14.16,0,0,1,14.16-14.17H541.92v94.46" style="fill: none; stroke: rgb(38, 50, 56); stroke-linecap: round; stroke-linejoin: round; stroke-width: 7px; transform-origin: 429.2px 287.39px;" id="el19e1csyokzp" class="animable"></path><polygon points="530.51 314.16 541.92 319.01 553.33 314.16 541.92 341.2 530.51 314.16" style="fill: rgb(38, 50, 56); transform-origin: 541.92px 327.68px;" id="ellb8y3vnnow" class="animable"></polygon><path d="M634.7,347.63H258.33a13.78,13.78,0,0,0-13.78,13.79v40.43" style="fill: none; stroke: rgb(38, 50, 56); stroke-linecap: round; stroke-linejoin: round; stroke-width: 7px; transform-origin: 439.625px 374.74px;" id="eljliwi2b3a1l" class="animable"></path></g><g id="freepik--Codes--inject-17" class="animable" style="transform-origin: 488.915px 299.325px;"><path d="M290.8,314h53.53a3,3,0,0,1,3,3v63.57a5.39,5.39,0,0,1-5.39,5.39H293.22a5.39,5.39,0,0,1-5.39-5.39V317A3,3,0,0,1,290.8,314Z" style="fill: rgb(255, 255, 255); stroke: rgb(38, 50, 56); stroke-linecap: round; stroke-linejoin: round; transform-origin: 317.58px 349.98px;" id="elpxikobe9wo" class="animable"></path><path d="M290.8,314h53.53a3,3,0,0,1,3,3v4.28a0,0,0,0,1,0,0H287.83a0,0,0,0,1,0,0V317A3,3,0,0,1,290.8,314Z" style="fill: rgb(38, 50, 56); stroke: rgb(38, 50, 56); stroke-linecap: round; stroke-linejoin: round; transform-origin: 317.58px 317.64px;" id="elhrpoqxanswi" class="animable"></path><path d="M332.8,317.8a1.94,1.94,0,1,0-1.93,1.93A1.94,1.94,0,0,0,332.8,317.8Z" style="fill: rgb(255, 255, 255); stroke: rgb(38, 50, 56); stroke-linecap: round; stroke-linejoin: round; transform-origin: 330.86px 317.79px;" id="elgyx6y8gehi7" class="animable"></path><path d="M339,317.8a1.94,1.94,0,1,0-1.94,1.93A1.94,1.94,0,0,0,339,317.8Z" style="fill: rgb(255, 255, 255); stroke: rgb(38, 50, 56); stroke-linecap: round; stroke-linejoin: round; transform-origin: 337.06px 317.79px;" id="el5bgca49umrx" class="animable"></path><path d="M345.17,317.8a1.93,1.93,0,1,0-1.93,1.93A1.93,1.93,0,0,0,345.17,317.8Z" style="fill: rgb(255, 255, 255); stroke: rgb(38, 50, 56); stroke-linecap: round; stroke-linejoin: round; transform-origin: 343.24px 317.8px;" id="elfd7yhvm5j6b" class="animable"></path><polyline points="310.42 329.55 300.23 337.6 310.42 345.66" style="fill: none; stroke: rgb(38, 50, 56); stroke-linecap: round; stroke-linejoin: round; stroke-width: 3px; transform-origin: 305.325px 337.605px;" id="eljnkr1c4p5ge" class="animable"></polyline><polyline points="324.39 329.55 334.58 337.6 324.39 345.66" style="fill: none; stroke: rgb(38, 50, 56); stroke-linecap: round; stroke-linejoin: round; stroke-width: 3px; transform-origin: 329.485px 337.605px;" id="elerigmzsotg4" class="animable"></polyline><line x1="318.71" y1="327.65" x2="315.63" y2="347.08" style="fill: none; stroke: rgb(38, 50, 56); stroke-linecap: round; stroke-linejoin: round; stroke-width: 3px; transform-origin: 317.17px 337.365px;" id="el4854l6zjrch" class="animable"></line><line x1="329.93" y1="356.28" x2="341.18" y2="356.28" style="fill: none; stroke: rgb(38, 50, 56); stroke-linecap: round; stroke-linejoin: round; transform-origin: 335.555px 356.28px;" id="elgfyq3cn55mn" class="animable"></line><line x1="313.24" y1="356.28" x2="327.88" y2="356.28" style="fill: none; stroke: rgb(38, 50, 56); stroke-linecap: round; stroke-linejoin: round; transform-origin: 320.56px 356.28px;" id="elb14sxh04kgp" class="animable"></line><line x1="300.95" y1="356.28" x2="310.02" y2="356.28" style="fill: none; stroke: rgb(38, 50, 56); stroke-linecap: round; stroke-linejoin: round; transform-origin: 305.485px 356.28px;" id="el97i6o0sspx7" class="animable"></line><line x1="294.65" y1="356.28" x2="298.9" y2="356.28" style="fill: none; stroke: rgb(38, 50, 56); stroke-linecap: round; stroke-linejoin: round; transform-origin: 296.775px 356.28px;" id="el0ufqhx7xjixg" class="animable"></line><line x1="334.61" y1="362.93" x2="341.18" y2="362.93" style="fill: none; stroke: rgb(38, 50, 56); stroke-linecap: round; stroke-linejoin: round; transform-origin: 337.895px 362.93px;" id="elrxnfhmu8w0m" class="animable"></line><line x1="301.83" y1="362.93" x2="331.39" y2="362.93" style="fill: none; stroke: rgb(38, 50, 56); stroke-linecap: round; stroke-linejoin: round; transform-origin: 316.61px 362.93px;" id="elu4mvgk5mrt" class="animable"></line><line x1="294.65" y1="362.93" x2="298.32" y2="362.93" style="fill: none; stroke: rgb(38, 50, 56); stroke-linecap: round; stroke-linejoin: round; transform-origin: 296.485px 362.93px;" id="el87q63tdms2o" class="animable"></line><line x1="318.8" y1="369.58" x2="341.18" y2="369.58" style="fill: none; stroke: rgb(38, 50, 56); stroke-linecap: round; stroke-linejoin: round; transform-origin: 329.99px 369.58px;" id="elug9wwbzzoaj" class="animable"></line><line x1="300.07" y1="369.58" x2="314.71" y2="369.58" style="fill: none; stroke: rgb(38, 50, 56); stroke-linecap: round; stroke-linejoin: round; transform-origin: 307.39px 369.58px;" id="elf49g9royy5h" class="animable"></line><line x1="294.65" y1="369.58" x2="297.73" y2="369.58" style="fill: none; stroke: rgb(38, 50, 56); stroke-linecap: round; stroke-linejoin: round; transform-origin: 296.19px 369.58px;" id="elazna4j1cwaj" class="animable"></line><line x1="334.9" y1="376.23" x2="341.18" y2="376.23" style="fill: none; stroke: rgb(38, 50, 56); stroke-linecap: round; stroke-linejoin: round; transform-origin: 338.04px 376.23px;" id="elw7m1zm2hoyo" class="animable"></line><line x1="313.54" y1="376.23" x2="331.39" y2="376.23" style="fill: none; stroke: rgb(38, 50, 56); stroke-linecap: round; stroke-linejoin: round; transform-origin: 322.465px 376.23px;" id="el1vwl6stgj27" class="animable"></line><line x1="294.65" y1="376.23" x2="310.02" y2="376.23" style="fill: none; stroke: rgb(38, 50, 56); stroke-linecap: round; stroke-linejoin: round; transform-origin: 302.335px 376.23px;" id="elibss4p9j9t" class="animable"></line><path d="M402.8,314h53.53a3,3,0,0,1,3,3v63.57a5.39,5.39,0,0,1-5.39,5.39H405.22a5.39,5.39,0,0,1-5.39-5.39V317A3,3,0,0,1,402.8,314Z" style="fill: rgb(255, 255, 255); stroke: rgb(38, 50, 56); stroke-linecap: round; stroke-linejoin: round; transform-origin: 429.58px 349.98px;" id="elu0a157e5u1s" class="animable"></path><path d="M402.8,314h53.53a3,3,0,0,1,3,3v4.28a0,0,0,0,1,0,0H399.83a0,0,0,0,1,0,0V317A3,3,0,0,1,402.8,314Z" style="fill: rgb(38, 50, 56); stroke: rgb(38, 50, 56); stroke-linecap: round; stroke-linejoin: round; transform-origin: 429.58px 317.64px;" id="elwmjstly9dhh" class="animable"></path><path d="M444.8,317.8a1.94,1.94,0,1,0-1.93,1.93A1.94,1.94,0,0,0,444.8,317.8Z" style="fill: rgb(255, 255, 255); stroke: rgb(38, 50, 56); stroke-linecap: round; stroke-linejoin: round; transform-origin: 442.86px 317.79px;" id="elzr0h0l26gys" class="animable"></path><path d="M451,317.8a1.94,1.94,0,1,0-1.94,1.93A1.94,1.94,0,0,0,451,317.8Z" style="fill: rgb(255, 255, 255); stroke: rgb(38, 50, 56); stroke-linecap: round; stroke-linejoin: round; transform-origin: 449.06px 317.79px;" id="el9euvl14gn9" class="animable"></path><path d="M457.17,317.8a1.93,1.93,0,1,0-1.93,1.93A1.93,1.93,0,0,0,457.17,317.8Z" style="fill: rgb(255, 255, 255); stroke: rgb(38, 50, 56); stroke-linecap: round; stroke-linejoin: round; transform-origin: 455.24px 317.8px;" id="elh8yp19xb2sf" class="animable"></path><polyline points="422.42 329.55 412.23 337.6 422.42 345.66" style="fill: none; stroke: rgb(38, 50, 56); stroke-linecap: round; stroke-linejoin: round; stroke-width: 3px; transform-origin: 417.325px 337.605px;" id="el8wnbwm2i1tw" class="animable"></polyline><polyline points="436.39 329.55 446.58 337.6 436.39 345.66" style="fill: none; stroke: rgb(38, 50, 56); stroke-linecap: round; stroke-linejoin: round; stroke-width: 3px; transform-origin: 441.485px 337.605px;" id="eld37ge9k84jc" class="animable"></polyline><line x1="430.71" y1="327.65" x2="427.63" y2="347.08" style="fill: none; stroke: rgb(38, 50, 56); stroke-linecap: round; stroke-linejoin: round; stroke-width: 3px; transform-origin: 429.17px 337.365px;" id="elmbl6oteh3i" class="animable"></line><line x1="441.93" y1="356.28" x2="453.18" y2="356.28" style="fill: none; stroke: rgb(38, 50, 56); stroke-linecap: round; stroke-linejoin: round; transform-origin: 447.555px 356.28px;" id="eltcsx7rqco5g" class="animable"></line><line x1="425.24" y1="356.28" x2="439.88" y2="356.28" style="fill: none; stroke: rgb(38, 50, 56); stroke-linecap: round; stroke-linejoin: round; transform-origin: 432.56px 356.28px;" id="elxdakoxp9t1q" class="animable"></line><line x1="412.95" y1="356.28" x2="422.02" y2="356.28" style="fill: none; stroke: rgb(38, 50, 56); stroke-linecap: round; stroke-linejoin: round; transform-origin: 417.485px 356.28px;" id="elkful5aydc9q" class="animable"></line><line x1="406.65" y1="356.28" x2="410.9" y2="356.28" style="fill: none; stroke: rgb(38, 50, 56); stroke-linecap: round; stroke-linejoin: round; transform-origin: 408.775px 356.28px;" id="elyb8f3762zt" class="animable"></line><line x1="446.61" y1="362.93" x2="453.18" y2="362.93" style="fill: none; stroke: rgb(38, 50, 56); stroke-linecap: round; stroke-linejoin: round; transform-origin: 449.895px 362.93px;" id="eloewmvudj44q" class="animable"></line><line x1="413.83" y1="362.93" x2="443.39" y2="362.93" style="fill: none; stroke: rgb(38, 50, 56); stroke-linecap: round; stroke-linejoin: round; transform-origin: 428.61px 362.93px;" id="elersyzwpffdq" class="animable"></line><line x1="406.65" y1="362.93" x2="410.32" y2="362.93" style="fill: none; stroke: rgb(38, 50, 56); stroke-linecap: round; stroke-linejoin: round; transform-origin: 408.485px 362.93px;" id="elwz0sjgezoqp" class="animable"></line><line x1="430.8" y1="369.58" x2="453.18" y2="369.58" style="fill: none; stroke: rgb(38, 50, 56); stroke-linecap: round; stroke-linejoin: round; transform-origin: 441.99px 369.58px;" id="elcuezan51068" class="animable"></line><line x1="412.07" y1="369.58" x2="426.71" y2="369.58" style="fill: none; stroke: rgb(38, 50, 56); stroke-linecap: round; stroke-linejoin: round; transform-origin: 419.39px 369.58px;" id="elwxdeypcgtvg" class="animable"></line><line x1="406.65" y1="369.58" x2="409.73" y2="369.58" style="fill: none; stroke: rgb(38, 50, 56); stroke-linecap: round; stroke-linejoin: round; transform-origin: 408.19px 369.58px;" id="elr5212ve6ux" class="animable"></line><line x1="446.9" y1="376.23" x2="453.18" y2="376.23" style="fill: none; stroke: rgb(38, 50, 56); stroke-linecap: round; stroke-linejoin: round; transform-origin: 450.04px 376.23px;" id="elzs3ntk0gc6" class="animable"></line><line x1="425.54" y1="376.23" x2="443.39" y2="376.23" style="fill: none; stroke: rgb(38, 50, 56); stroke-linecap: round; stroke-linejoin: round; transform-origin: 434.465px 376.23px;" id="el3c8hs8ss3y4" class="animable"></line><line x1="406.65" y1="376.23" x2="422.02" y2="376.23" style="fill: none; stroke: rgb(38, 50, 56); stroke-linecap: round; stroke-linejoin: round; transform-origin: 414.335px 376.23px;" id="ellbkbvb5kzd8" class="animable"></line><path d="M633.47,314H687a3,3,0,0,1,3,3v63.57a5.39,5.39,0,0,1-5.39,5.39H635.88a5.39,5.39,0,0,1-5.39-5.39V317A3,3,0,0,1,633.47,314Z" style="fill: rgb(255, 255, 255); stroke: rgb(38, 50, 56); stroke-linecap: round; stroke-linejoin: round; transform-origin: 660.245px 349.98px;" id="elmxneaxcfrii" class="animable"></path><path d="M633.47,314H687a3,3,0,0,1,3,3v4.28a0,0,0,0,1,0,0H630.5a0,0,0,0,1,0,0V317A3,3,0,0,1,633.47,314Z" style="fill: rgb(38, 50, 56); stroke: rgb(38, 50, 56); stroke-linecap: round; stroke-linejoin: round; transform-origin: 660.25px 317.64px;" id="el76rs9czg3i7" class="animable"></path><path d="M675.47,317.8a1.94,1.94,0,1,0-1.94,1.93A1.94,1.94,0,0,0,675.47,317.8Z" style="fill: rgb(255, 255, 255); stroke: rgb(38, 50, 56); stroke-linecap: round; stroke-linejoin: round; transform-origin: 673.53px 317.79px;" id="elephc5hnrccn" class="animable"></path><path d="M681.65,317.8a1.93,1.93,0,1,0-1.93,1.93A1.93,1.93,0,0,0,681.65,317.8Z" style="fill: rgb(255, 255, 255); stroke: rgb(38, 50, 56); stroke-linecap: round; stroke-linejoin: round; transform-origin: 679.72px 317.8px;" id="elkd2npox3hv" class="animable"></path><path d="M687.84,317.8a1.94,1.94,0,1,0-1.93,1.93A1.94,1.94,0,0,0,687.84,317.8Z" style="fill: rgb(255, 255, 255); stroke: rgb(38, 50, 56); stroke-linecap: round; stroke-linejoin: round; transform-origin: 685.9px 317.79px;" id="el6iusnua02ol" class="animable"></path><polyline points="653.08 329.55 642.89 337.6 653.08 345.66" style="fill: none; stroke: rgb(38, 50, 56); stroke-linecap: round; stroke-linejoin: round; stroke-width: 3px; transform-origin: 647.985px 337.605px;" id="elwhcgc2d59p" class="animable"></polyline><polyline points="667.06 329.55 677.25 337.6 667.06 345.66" style="fill: none; stroke: rgb(38, 50, 56); stroke-linecap: round; stroke-linejoin: round; stroke-width: 3px; transform-origin: 672.155px 337.605px;" id="elr07jb99ywcs" class="animable"></polyline><line x1="661.37" y1="327.65" x2="658.29" y2="347.08" style="fill: none; stroke: rgb(38, 50, 56); stroke-linecap: round; stroke-linejoin: round; stroke-width: 3px; transform-origin: 659.83px 337.365px;" id="els4q3ik2ynak" class="animable"></line><line x1="672.59" y1="356.28" x2="683.85" y2="356.28" style="fill: none; stroke: rgb(38, 50, 56); stroke-linecap: round; stroke-linejoin: round; transform-origin: 678.22px 356.28px;" id="elexiez0hm23a" class="animable"></line><line x1="655.91" y1="356.28" x2="670.54" y2="356.28" style="fill: none; stroke: rgb(38, 50, 56); stroke-linecap: round; stroke-linejoin: round; transform-origin: 663.225px 356.28px;" id="elgxe24ttxcb" class="animable"></line><line x1="643.62" y1="356.28" x2="652.69" y2="356.28" style="fill: none; stroke: rgb(38, 50, 56); stroke-linecap: round; stroke-linejoin: round; transform-origin: 648.155px 356.28px;" id="el213e2d6v6zf" class="animable"></line><line x1="637.32" y1="356.28" x2="641.57" y2="356.28" style="fill: none; stroke: rgb(38, 50, 56); stroke-linecap: round; stroke-linejoin: round; transform-origin: 639.445px 356.28px;" id="ela79i37gsiat" class="animable"></line><line x1="677.28" y1="362.93" x2="683.85" y2="362.93" style="fill: none; stroke: rgb(38, 50, 56); stroke-linecap: round; stroke-linejoin: round; transform-origin: 680.565px 362.93px;" id="eli7b9ug2ig3c" class="animable"></line><line x1="644.5" y1="362.93" x2="674.06" y2="362.93" style="fill: none; stroke: rgb(38, 50, 56); stroke-linecap: round; stroke-linejoin: round; transform-origin: 659.28px 362.93px;" id="eldjcaajyjn2p" class="animable"></line><line x1="637.32" y1="362.93" x2="640.98" y2="362.93" style="fill: none; stroke: rgb(38, 50, 56); stroke-linecap: round; stroke-linejoin: round; transform-origin: 639.15px 362.93px;" id="el8sc2yypeqfx" class="animable"></line><line x1="661.47" y1="369.58" x2="683.85" y2="369.58" style="fill: none; stroke: rgb(38, 50, 56); stroke-linecap: round; stroke-linejoin: round; transform-origin: 672.66px 369.58px;" id="el0jeh17weo5x" class="animable"></line><line x1="642.74" y1="369.58" x2="657.37" y2="369.58" style="fill: none; stroke: rgb(38, 50, 56); stroke-linecap: round; stroke-linejoin: round; transform-origin: 650.055px 369.58px;" id="elaufgsfzwa7l" class="animable"></line><line x1="637.32" y1="369.58" x2="640.4" y2="369.58" style="fill: none; stroke: rgb(38, 50, 56); stroke-linecap: round; stroke-linejoin: round; transform-origin: 638.86px 369.58px;" id="el74u4x8nvdbs" class="animable"></line><line x1="677.57" y1="376.23" x2="683.85" y2="376.23" style="fill: none; stroke: rgb(38, 50, 56); stroke-linecap: round; stroke-linejoin: round; transform-origin: 680.71px 376.23px;" id="elfiih7ijhu9" class="animable"></line><line x1="656.2" y1="376.23" x2="674.06" y2="376.23" style="fill: none; stroke: rgb(38, 50, 56); stroke-linecap: round; stroke-linejoin: round; transform-origin: 665.13px 376.23px;" id="el3x7cuvw1bko" class="animable"></line><line x1="637.32" y1="376.23" x2="652.69" y2="376.23" style="fill: none; stroke: rgb(38, 50, 56); stroke-linecap: round; stroke-linejoin: round; transform-origin: 645.005px 376.23px;" id="el4zn9ntwtgon" class="animable"></line><path d="M514.47,212.69H568a3,3,0,0,1,3,3v63.57a5.39,5.39,0,0,1-5.39,5.39H516.88a5.39,5.39,0,0,1-5.39-5.39V215.66A3,3,0,0,1,514.47,212.69Z" style="fill: rgb(255, 255, 255); stroke: rgb(38, 50, 56); stroke-linecap: round; stroke-linejoin: round; transform-origin: 541.245px 248.67px;" id="elz6eghjlcpzp" class="animable"></path><path d="M514.47,212.69H568a3,3,0,0,1,3,3v4.28a0,0,0,0,1,0,0H511.5a0,0,0,0,1,0,0v-4.28A3,3,0,0,1,514.47,212.69Z" style="fill: rgb(38, 50, 56); stroke: rgb(38, 50, 56); stroke-linecap: round; stroke-linejoin: round; transform-origin: 541.25px 216.33px;" id="elpz8qjpb0dff" class="animable"></path><path d="M556.47,216.46a1.94,1.94,0,1,0-1.94,1.94A1.94,1.94,0,0,0,556.47,216.46Z" style="fill: rgb(255, 255, 255); stroke: rgb(38, 50, 56); stroke-linecap: round; stroke-linejoin: round; transform-origin: 554.53px 216.46px;" id="eli3bv0o0cnri" class="animable"></path><path d="M562.65,216.46a1.93,1.93,0,1,0-1.93,1.94A1.93,1.93,0,0,0,562.65,216.46Z" style="fill: rgb(255, 255, 255); stroke: rgb(38, 50, 56); stroke-linecap: round; stroke-linejoin: round; transform-origin: 560.72px 216.47px;" id="ellp3rw1fs1tn" class="animable"></path><path d="M568.84,216.46a1.94,1.94,0,1,0-1.93,1.94A1.94,1.94,0,0,0,568.84,216.46Z" style="fill: rgb(255, 255, 255); stroke: rgb(38, 50, 56); stroke-linecap: round; stroke-linejoin: round; transform-origin: 566.9px 216.46px;" id="elmjyjlynoak" class="animable"></path><polyline points="534.08 228.21 523.89 236.27 534.08 244.33" style="fill: none; stroke: rgb(38, 50, 56); stroke-linecap: round; stroke-linejoin: round; stroke-width: 3px; transform-origin: 528.985px 236.27px;" id="el11ybq4eg80fn" class="animable"></polyline><polyline points="548.06 228.21 558.25 236.27 548.06 244.33" style="fill: none; stroke: rgb(38, 50, 56); stroke-linecap: round; stroke-linejoin: round; stroke-width: 3px; transform-origin: 553.155px 236.27px;" id="eliik65ptjd7g" class="animable"></polyline><line x1="542.37" y1="226.32" x2="539.29" y2="245.75" style="fill: none; stroke: rgb(38, 50, 56); stroke-linecap: round; stroke-linejoin: round; stroke-width: 3px; transform-origin: 540.83px 236.035px;" id="elq5m9mzb2l0l" class="animable"></line><line x1="553.59" y1="254.95" x2="564.85" y2="254.95" style="fill: none; stroke: rgb(38, 50, 56); stroke-linecap: round; stroke-linejoin: round; transform-origin: 559.22px 254.95px;" id="elyxmaulf2y4q" class="animable"></line><line x1="536.91" y1="254.95" x2="551.54" y2="254.95" style="fill: none; stroke: rgb(38, 50, 56); stroke-linecap: round; stroke-linejoin: round; transform-origin: 544.225px 254.95px;" id="el17uvyrjpbus" class="animable"></line><line x1="524.62" y1="254.95" x2="533.69" y2="254.95" style="fill: none; stroke: rgb(38, 50, 56); stroke-linecap: round; stroke-linejoin: round; transform-origin: 529.155px 254.95px;" id="ellr1uhoyjzc" class="animable"></line><line x1="518.32" y1="254.95" x2="522.57" y2="254.95" style="fill: none; stroke: rgb(38, 50, 56); stroke-linecap: round; stroke-linejoin: round; transform-origin: 520.445px 254.95px;" id="elde5jjduyo7j" class="animable"></line><line x1="558.28" y1="261.6" x2="564.85" y2="261.6" style="fill: none; stroke: rgb(38, 50, 56); stroke-linecap: round; stroke-linejoin: round; transform-origin: 561.565px 261.6px;" id="elqq4ovb73sck" class="animable"></line><line x1="525.5" y1="261.6" x2="555.06" y2="261.6" style="fill: none; stroke: rgb(38, 50, 56); stroke-linecap: round; stroke-linejoin: round; transform-origin: 540.28px 261.6px;" id="el0p2p8d5s815" class="animable"></line><line x1="518.32" y1="261.6" x2="521.98" y2="261.6" style="fill: none; stroke: rgb(38, 50, 56); stroke-linecap: round; stroke-linejoin: round; transform-origin: 520.15px 261.6px;" id="elpvi7es9kqx" class="animable"></line><line x1="542.47" y1="268.25" x2="564.85" y2="268.25" style="fill: none; stroke: rgb(38, 50, 56); stroke-linecap: round; stroke-linejoin: round; transform-origin: 553.66px 268.25px;" id="elsh8kifpjsz" class="animable"></line><line x1="523.74" y1="268.25" x2="538.37" y2="268.25" style="fill: none; stroke: rgb(38, 50, 56); stroke-linecap: round; stroke-linejoin: round; transform-origin: 531.055px 268.25px;" id="el89rzixyv62f" class="animable"></line><line x1="518.32" y1="268.25" x2="521.4" y2="268.25" style="fill: none; stroke: rgb(38, 50, 56); stroke-linecap: round; stroke-linejoin: round; transform-origin: 519.86px 268.25px;" id="elb68zbu4ywva" class="animable"></line><line x1="558.57" y1="274.89" x2="564.85" y2="274.89" style="fill: none; stroke: rgb(38, 50, 56); stroke-linecap: round; stroke-linejoin: round; transform-origin: 561.71px 274.89px;" id="ell4eyhycp1w" class="animable"></line><line x1="537.2" y1="274.89" x2="555.06" y2="274.89" style="fill: none; stroke: rgb(38, 50, 56); stroke-linecap: round; stroke-linejoin: round; transform-origin: 546.13px 274.89px;" id="eldiuez9wb096" class="animable"></line><line x1="518.32" y1="274.89" x2="533.69" y2="274.89" style="fill: none; stroke: rgb(38, 50, 56); stroke-linecap: round; stroke-linejoin: round; transform-origin: 526.005px 274.89px;" id="el82or2gjtsrh" class="animable"></line><line x1="567.39" y1="260.43" x2="581.28" y2="260.43" style="fill: none; stroke: rgb(38, 50, 56); stroke-linecap: round; stroke-linejoin: round; transform-origin: 574.335px 260.43px;" id="elsghu1rgo7r" class="animable"></line><circle cx="593.81" cy="260.43" r="12.53" style="fill: rgb(38, 50, 56); transform-origin: 593.81px 260.43px;" id="elkwmltgwdfa" class="animable"></circle><line x1="600.13" y1="254.58" x2="588.14" y2="266.57" style="fill: none; stroke: #64A6D4; stroke-linecap: round; stroke-miterlimit: 10; stroke-width: 4px; transform-origin: 594.135px 260.575px;" id="ellasx0k45y4s" class="animable"></line><line x1="588.14" y1="254.58" x2="600.13" y2="266.57" style="fill: none; stroke: #64A6D4; stroke-linecap: round; stroke-miterlimit: 10; stroke-width: 4px; transform-origin: 594.135px 260.575px;" id="els213xzlz9uj" class="animable"></line><circle cx="564.39" cy="260.43" r="3" style="fill: rgb(38, 50, 56); transform-origin: 564.39px 260.43px;" id="eld251trp7l4o" class="animable"></circle><g id="el5q8zmdknxpp"><circle cx="590.86" cy="345.5" r="17.98" style="fill: rgb(38, 50, 56); transform-origin: 590.86px 345.5px; transform: rotate(-45deg);" class="animable" id="elhjxtkgk04uc"></circle></g><polyline points="582.93 341.5 591.21 350.62 611.1 323.27" style="fill: none; stroke: #64A6D4; stroke-linecap: round; stroke-miterlimit: 10; stroke-width: 6px; transform-origin: 597.015px 336.945px;" id="el21ceaz8537f" class="animable"></polyline></g><g id="freepik--character-2--inject-17" class="animable" style="transform-origin: 451.66px 111.192px;"><path d="M477,90.84s-31.91,14.85-35.2,18.57c-4.64,5.25-9.46,58-9.46,58L423.22,175l14,24.78h82.95s10.92-85.54,9.71-89.8-34.93-16.71-38.27-18.23S479.74,89.32,477,90.84Z" style="fill: #64A6D4; stroke: rgb(38, 50, 56); stroke-linecap: round; stroke-linejoin: round; transform-origin: 476.597px 144.919px;" id="elubce8jtknmj" class="animable"></path><line x1="448.71" y1="130.73" x2="447.63" y2="128.42" style="fill: none; stroke: rgb(38, 50, 56); stroke-linecap: round; stroke-linejoin: round; transform-origin: 448.17px 129.575px;" id="elczonrys4kio" class="animable"></line><path d="M449.06,178.44l.47-13-2.43-9.36a13.41,13.41,0,0,1,.06-6.89L451,135.54l-1.06-2.27" style="fill: none; stroke: rgb(38, 50, 56); stroke-linecap: round; stroke-linejoin: round; transform-origin: 448.84px 155.855px;" id="elp723gtve6ss" class="animable"></path><line x1="448.58" y1="191.9" x2="448.93" y2="182.22" style="fill: none; stroke: rgb(38, 50, 56); stroke-linecap: round; stroke-linejoin: round; transform-origin: 448.755px 187.06px;" id="elfcxh4v9ob96" class="animable"></line><path d="M445.22,174.13a18.19,18.19,0,0,1,.94,3.55" style="fill: #64A6D4; stroke: rgb(38, 50, 56); stroke-linecap: round; stroke-linejoin: round; transform-origin: 445.69px 175.905px;" id="elzv68yydr0w" class="animable"></path><path d="M436.39,168.52a7.56,7.56,0,0,1,7.66,3.36" style="fill: #64A6D4; stroke: rgb(38, 50, 56); stroke-linecap: round; stroke-linejoin: round; transform-origin: 440.22px 170.144px;" id="eleees5zo79ee" class="animable"></path><path d="M378.28,185.73s-2.87.43-4,2.29-3.3,7.16-2.29,7.59,1.71-1.14,2.43-2.29,1.72-2.87,1.72-2.87l2.29-.43Z" style="fill: rgb(255, 255, 255); stroke: rgb(38, 50, 56); stroke-linecap: round; stroke-linejoin: round; transform-origin: 375.08px 190.706px;" id="ela16eimqmyn7" class="animable"></path><path d="M382.29,183s-3.29-.29-4.15,1.14-2.58,10.89-2.44,12,1.58,1.72,2.72-.28S382,185,382,185Z" style="fill: rgb(255, 255, 255); stroke: rgb(38, 50, 56); stroke-linecap: round; stroke-linejoin: round; transform-origin: 378.991px 190.073px;" id="elib81qe6p5s" class="animable"></path><path d="M389,182.86s-4.87-2.29-6.87-1.86-4.87,15-4.44,15.76a2.15,2.15,0,0,0,3.15-.29c.71-1.15,4.87-8.16,6-9.88A39.19,39.19,0,0,0,389,182.86Z" style="fill: rgb(255, 255, 255); stroke: rgb(38, 50, 56); stroke-linecap: round; stroke-linejoin: round; transform-origin: 383.323px 189.131px;" id="el2ygozf35mp2" class="animable"></path><path d="M439,190.35s-1.86-12.69-5.27-17.65-5.91-.68-11.06,2c-3.13,1.63-21.77,9.46-22.7,9.77s-9-4.34-10.53-3.1-7.43,8.67-8.67,12.7,1.86,4.33,3.1,3.1,4.95-7.13,6.5-8.37,5.27,2.79,5.27,2.79-5.58,2.79-7.43,4,.92,1.86,4,1.86a23.88,23.88,0,0,0,9-2.17l3.1-1.55S428.8,193.76,439,190.35Z" style="fill: rgb(255, 255, 255); stroke: rgb(38, 50, 56); stroke-linecap: round; stroke-linejoin: round; transform-origin: 409.741px 184.114px;" id="el6j6kpuegybp" class="animable"></path><path d="M522.49,105.92s9.6,2.75,9.08,5.83S529,182.8,525.7,187.48s-12.53,3.11-12.53,3.11-3.92-12.2-7.91-15.89-5.47-2.43-5.47-2.43L502.52,131" style="fill: #64A6D4; stroke: rgb(38, 50, 56); stroke-linecap: round; stroke-linejoin: round; transform-origin: 515.69px 148.382px;" id="elglwmmxs4zzs" class="animable"></path><path d="M500.51,169.13s1.83-7.32,20.15,0" style="fill: #64A6D4; stroke: rgb(38, 50, 56); stroke-linecap: round; stroke-linejoin: round; transform-origin: 510.585px 167.503px;" id="elyp7qjs0qmng" class="animable"></path><path d="M506.62,160.59s13.43,1.83,17.7,7.93" style="fill: #64A6D4; stroke: rgb(38, 50, 56); stroke-linecap: round; stroke-linejoin: round; transform-origin: 515.47px 164.555px;" id="elvmgas7y2odd" class="animable"></path><path d="M429,186.61a19.82,19.82,0,0,1-4.81,4.24c-2.83,1.7-6.51,2.55-4,3.68s6.5-.57,8.77-2S429,186.61,429,186.61Z" style="fill: rgb(255, 255, 255); stroke: rgb(38, 50, 56); stroke-linecap: round; stroke-linejoin: round; transform-origin: 424.667px 190.754px;" id="ell3lnfiod0s" class="animable"></path><path d="M485.78,181c6.18-3.78,11.74-10.06,19.43-10.35s14.79,5.17,18.2,11.68c1.11,2.13,1.89,4.63,1.19,6.94-1.32,4.32-6.72,5.57-11.21,6.11l-24.79,2.93c-14.82,1.75-30.43,3.4-44.18-2.42a6.38,6.38,0,0,1-1.67,3.51c-1,.86-2.85.82-3.37-.39a3.25,3.25,0,0,1-4,.34c-.26-.16-1.58.52-2.95.28-.49-.09-2.18-.83-2.66-.95a2.46,2.46,0,0,1-1.65-.93,2.56,2.56,0,0,1-.24-1.32,28,28,0,0,1,.82-8.67c3.49-11.18,15.95-5,22.59-.67,2.26,1.5,4.63,3,7.33,3.29a16.55,16.55,0,0,0,5.93-.9c7.13-2,14.65-4.48,21.15-8.42Z" style="fill: rgb(255, 255, 255); stroke: rgb(38, 50, 56); stroke-linecap: round; stroke-linejoin: round; transform-origin: 476.346px 185.314px;" id="elffqfcq4rw5t" class="animable"></path><line x1="444.42" y1="195.86" x2="445.49" y2="191.67" style="fill: none; stroke: rgb(38, 50, 56); stroke-linecap: round; stroke-linejoin: round; transform-origin: 444.955px 193.765px;" id="elk60fq1w024l" class="animable"></line><path d="M439.5,198.49s.57-11.6,2.55-14.14" style="fill: none; stroke: rgb(38, 50, 56); stroke-linecap: round; stroke-linejoin: round; transform-origin: 440.775px 191.42px;" id="elk700rghf2d" class="animable"></path><path d="M435.54,198.77s-.85-10.18,1.13-15" style="fill: none; stroke: rgb(38, 50, 56); stroke-linecap: round; stroke-linejoin: round; transform-origin: 436.014px 191.27px;" id="elwoojdcd6v3b" class="animable"></path><path d="M431.26,198.73s-.81-7.79.61-13.25" style="fill: none; stroke: rgb(38, 50, 56); stroke-linecap: round; stroke-linejoin: round; transform-origin: 431.45px 192.105px;" id="el3snjukbw4p5" class="animable"></path><path d="M468.54,94.85s-8.68,24.43,4.71,24.8c15.4.43,21.39-26.09,21.39-26.09S486.08,79,483.94,67,468.54,94.85,468.54,94.85Z" style="fill: rgb(255, 255, 255); stroke: rgb(38, 50, 56); stroke-linecap: round; stroke-linejoin: round; transform-origin: 480.207px 92.2012px;" id="elqtqewefqmw" class="animable"></path><path d="M468.54,94.85s2.14,2.56,3.85,9.41" style="fill: none; stroke: rgb(38, 50, 56); stroke-linecap: round; stroke-linejoin: round; transform-origin: 470.465px 99.555px;" id="elk9uval5d8bb" class="animable"></path><path d="M442,46.14s-7.62,4.93-7.62,9.86,9.41,6.72,9.41,6.72Z" style="fill: rgb(38, 50, 56); stroke: rgb(38, 50, 56); stroke-linecap: round; stroke-linejoin: round; transform-origin: 439.085px 54.43px;" id="elaxnkw6uukcj" class="animable"></path><path d="M439.22,49.2s.86,10.27,1.71,16,4.5,10.49,4.71,14.34,8.78,13.27,13.06,16.48,10.7,2.14,13.91-.42a41.56,41.56,0,0,0,11.13-15.42c2.57-6.63.64-16.26,0-19.26S467.05,46.2,454.84,46.2,439.22,49.2,439.22,49.2Z" style="fill: rgb(255, 255, 255); stroke: rgb(38, 50, 56); stroke-linecap: round; stroke-linejoin: round; transform-origin: 462.129px 72.1045px;" id="eljuxn3pqems" class="animable"></path><path d="M452.7,73.17s-.85,7.71-.85,8.35,1.92,2.57,5.13.64" style="fill: none; stroke: rgb(38, 50, 56); stroke-linecap: round; stroke-linejoin: round; transform-origin: 454.415px 78.0829px;" id="elxof82iuo6v" class="animable"></path><path d="M465.55,82.16a11.81,11.81,0,0,1-9,4.07" style="fill: none; stroke: rgb(38, 50, 56); stroke-linecap: round; stroke-linejoin: round; transform-origin: 461.05px 84.1951px;" id="elt5sjnb038d" class="animable"></path><path d="M459.44,71.19c.24,1.4.94,2.45,1.55,2.34s.9-1.33.66-2.73-.95-2.45-1.56-2.34S459.19,69.79,459.44,71.19Z" style="fill: rgb(38, 50, 56); transform-origin: 460.542px 70.995px;" id="el6ul9gm38oxb" class="animable"></path><path d="M446.65,74.29c.34,1.23,1.06,2.1,1.59,2s.69-1.27.35-2.5-1-2.11-1.59-2S446.31,73.05,446.65,74.29Z" style="fill: rgb(38, 50, 56); transform-origin: 447.612px 74.0393px;" id="el54o4pjc08um" class="animable"></path><path d="M466.06,65.68s-5.38-1.79-7.85,1.12" style="fill: none; stroke: rgb(38, 50, 56); stroke-linecap: round; stroke-linejoin: round; stroke-width: 2px; transform-origin: 462.135px 65.9677px;" id="elubzaxjos3" class="animable"></path><path d="M448.91,68.69a4.18,4.18,0,0,0-5,1.92" style="fill: none; stroke: rgb(38, 50, 56); stroke-linecap: round; stroke-linejoin: round; stroke-width: 2px; transform-origin: 446.41px 69.5381px;" id="el1o0ebai02ev" class="animable"></path><path d="M481.41,29.92s7.67-12.56,18.13-5.23,26,39.64,21.08,48.71-33.48,14.54-34.53,7.22.55-40.94-2.94-45.82S481.41,29.92,481.41,29.92Z" style="fill: rgb(38, 50, 56); stroke: rgb(38, 50, 56); stroke-linecap: round; stroke-linejoin: round; transform-origin: 501.264px 53.2065px;" id="elt454wxxd078" class="animable"></path><path d="M476.25,61.4s-11.56-6.21-21.41-8.14-17.33-1.07-19-6.85S445.64,31,457.63,27.58s26.32.21,32.1,8.77,3.86,18.84,2.14,22.69-3,6.85-6.2,7.28S476.25,61.4,476.25,61.4Z" style="fill: rgb(38, 50, 56); stroke: rgb(38, 50, 56); stroke-linecap: round; stroke-linejoin: round; transform-origin: 464.645px 46.3241px;" id="elkyziul3pwf" class="animable"></path><path d="M484.62,54.61a12.35,12.35,0,0,1,3.12,2.58" style="fill: none; stroke: rgb(255, 255, 255); stroke-linecap: round; stroke-linejoin: round; transform-origin: 486.18px 55.9px;" id="el5eqrk4sfpci" class="animable"></path><path d="M444.36,40s-3.12,1.88,5.93,5.62c6.57,2.72,19.88,3.47,29.19,6.66" style="fill: none; stroke: rgb(255, 255, 255); stroke-linecap: round; stroke-linejoin: round; transform-origin: 461.66px 46.14px;" id="el6xe8neo5o1v" class="animable"></path><path d="M456.37,37.83a8.68,8.68,0,0,1-1.72-2.8" style="fill: none; stroke: rgb(255, 255, 255); stroke-linecap: round; stroke-linejoin: round; transform-origin: 455.51px 36.43px;" id="el7xv73gppq9r" class="animable"></path><path d="M489.92,53.44s2.81-4-6.87-6.86c-7-2-17-2.75-23.27-6.16" style="fill: none; stroke: rgb(255, 255, 255); stroke-linecap: round; stroke-linejoin: round; transform-origin: 475.04px 46.93px;" id="ell0j2rha7x6" class="animable"></path><path d="M482.24,69.53s1.7-8.35,5.34-8.35,4.13,3.86,2.67,8.57-3.88,6.2-6.07,4.7" style="fill: rgb(255, 255, 255); stroke: rgb(38, 50, 56); stroke-linecap: round; stroke-linejoin: round; transform-origin: 486.628px 68.0954px;" id="el5niusthnvww" class="animable"></path></g><g id="freepik--device-2--inject-17" class="animable" style="transform-origin: 402.507px 169.314px;"><rect x="344.94" y="196.44" width="123.14" height="3.52" style="fill: rgb(38, 50, 56); stroke: rgb(38, 50, 56); stroke-linecap: round; stroke-linejoin: round; transform-origin: 406.51px 198.2px;" id="elljjk9fxwaqg" class="animable"></rect><rect x="424.85" y="196.44" width="43.23" height="3.52" style="fill: rgb(255, 255, 255); stroke: rgb(38, 50, 56); stroke-linecap: round; stroke-linejoin: round; transform-origin: 446.465px 198.2px;" id="elbm086tlbvw7" class="animable"></rect><path d="M426.31,196.44h-80l-7.77-53.18a3.87,3.87,0,0,1,3.91-4.59h70.78a5.5,5.5,0,0,1,5.26,4.59Z" style="fill: rgb(255, 255, 255); stroke: rgb(38, 50, 56); stroke-linecap: round; stroke-linejoin: round; transform-origin: 382.391px 167.554px;" id="elrj4erayue5" class="animable"></path><path d="M424.77,196.44H344.82L337,143.26a3.88,3.88,0,0,1,3.92-4.59h70.78a5.51,5.51,0,0,1,5.26,4.59Z" style="fill: rgb(255, 255, 255); stroke: rgb(38, 50, 56); stroke-linecap: round; stroke-linejoin: round; transform-origin: 380.852px 167.554px;" id="elclr9mkqwhxg" class="animable"></path></g><g id="freepik--table-2--inject-17" class="animable" style="transform-origin: 440.41px 199.96px;"><line x1="569.42" y1="199.96" x2="311.4" y2="199.96" style="fill: rgb(255, 255, 255); stroke: rgb(38, 50, 56); stroke-linecap: round; stroke-linejoin: round; transform-origin: 440.41px 199.96px;" id="elwp60l6if6c" class="animable"></line></g><g id="freepik--character-1--inject-17" class="animable" style="transform-origin: 160.571px 367.072px;"><path d="M73.21,457.15l-6.89-64.62a3.42,3.42,0,0,1,3.4-3.79h44.55a3.43,3.43,0,0,1,3.34,2.69l14.56,65.72Z" style="fill: rgb(38, 50, 56); stroke: rgb(38, 50, 56); stroke-linecap: round; stroke-linejoin: round; transform-origin: 99.235px 422.945px;" id="elb3x2rt87dhi" class="animable"></path><path d="M127.67,347.57s-28.08,14.94-28.86,20.87-3.09,88.61-3.09,88.61H162l-.21-26.74,3.41-4.83,4.07,8.71,18.1-8.43-17.55-57.38a9.25,9.25,0,0,0-3.64-5c-5.68-3.93-18.64-12.68-22.22-13.48C139.27,348.85,127.67,347.57,127.67,347.57Z" style="fill: rgb(255, 255, 255); transform-origin: 141.545px 402.31px;" id="ely6ivk4lue7" class="animable"></path><path d="M98.81,368.44c0,.26-.07.69-.11,1.24a16.46,16.46,0,0,1,5.72-.89c5.07,0,7.47,1.53,10.25,3.31,3,1.89,6.31,4,12.72,4s9.77-2.15,12.73-4c2.78-1.78,5.18-3.31,10.25-3.31s7.47,1.53,10.25,3.31a20.86,20.86,0,0,0,11.51,4l-1.44-4.73a16.92,16.92,0,0,1-7.6-3.15c-3-1.89-6.31-4-12.72-4s-9.77,2.15-12.73,4c-2.77,1.78-5.17,3.31-10.25,3.31s-7.47-1.53-10.24-3.31c-3-1.89-6.31-4-12.73-4-1,0-1.85.06-2.68.14C100.05,365.91,99,367.33,98.81,368.44Z" style="fill: #64A6D4; transform-origin: 135.415px 370.16px;" id="elgv02moeibv" class="animable"></path><path d="M117.15,456.45c-3-1.89-6.31-4-12.73-4a20.2,20.2,0,0,0-8.62,1.72c0,1.86-.08,2.92-.08,2.92h7.44c.4,0,.82,0,1.26,0s.86,0,1.26,0h12.4Z" style="fill: #64A6D4; transform-origin: 106.9px 454.768px;" id="elec07mwoi9l" class="animable"></path><path d="M161.94,455.72a20.16,20.16,0,0,0-11.57-3.31c-6.42,0-9.77,2.15-12.73,4l-.93.6h12.4c.4,0,.82,0,1.26,0s.86,0,1.26,0H162Z" style="fill: #64A6D4; transform-origin: 149.355px 454.707px;" id="elxt1n60jirlj" class="animable"></path><path d="M150.37,378.9c-6.42,0-9.77,2.14-12.73,4-2.77,1.78-5.17,3.32-10.25,3.32s-7.47-1.54-10.24-3.32c-3-1.89-6.31-4-12.73-4a22,22,0,0,0-6.22.82c-.06,1.54-.12,3.19-.19,4.94a15.78,15.78,0,0,1,6.41-1.17c5.07,0,7.47,1.54,10.25,3.31,3,1.9,6.31,4,12.72,4s9.77-2.14,12.73-4c2.78-1.77,5.18-3.31,10.25-3.31s7.47,1.54,10.25,3.31c3,1.9,6.31,4,12.72,4a24.54,24.54,0,0,0,3.23-.2l-1.36-4.47c-.58.05-1.2.08-1.87.08-5.07,0-7.47-1.54-10.25-3.32C160.14,381,156.78,378.9,150.37,378.9Z" style="fill: #64A6D4; transform-origin: 137.29px 384.849px;" id="el0lhpj1tklt8n" class="animable"></path><path d="M114.67,445.62c3,1.89,6.31,4,12.72,4s9.77-2.15,12.73-4c2.78-1.78,5.18-3.32,10.25-3.32s7.47,1.54,10.25,3.32l1.25.79-.05-5.46a20,20,0,0,0-11.45-3.24c-6.42,0-9.77,2.15-12.73,4-2.77,1.78-5.17,3.31-10.25,3.31s-7.47-1.53-10.24-3.31c-3-1.89-6.31-4-12.73-4a20.63,20.63,0,0,0-8.18,1.52c-.06,1.84-.11,3.58-.16,5.21a15.26,15.26,0,0,1,8.34-2.14C109.49,442.3,111.89,443.84,114.67,445.62Z" style="fill: #64A6D4; transform-origin: 128.975px 443.662px;" id="elmqqmn481wpo" class="animable"></path><path d="M163.09,397.64c-3-1.89-6.31-4-12.72-4s-9.77,2.15-12.73,4c-2.77,1.78-5.17,3.31-10.25,3.31s-7.47-1.53-10.24-3.31c-3-1.89-6.31-4-12.73-4a21.41,21.41,0,0,0-6.77,1c-.06,1.63-.11,3.3-.17,5a15.51,15.51,0,0,1,6.94-1.41c5.07,0,7.47,1.54,10.25,3.32,3,1.89,6.31,4,12.72,4s9.77-2.15,12.73-4c2.78-1.78,5.18-3.32,10.25-3.32s7.47,1.54,10.25,3.32c3,1.89,6.31,4,12.72,4a20.8,20.8,0,0,0,7.42-1.23l-1.35-4.39a16.25,16.25,0,0,1-6.07,1C168.27,401,165.87,399.42,163.09,397.64Z" style="fill: #64A6D4; transform-origin: 139.12px 399.596px;" id="eljzl7h7dq4w9" class="animable"></path><path d="M114.67,416.21c3,1.89,6.31,4,12.72,4s9.77-2.15,12.73-4c2.78-1.78,5.18-3.31,10.25-3.31s7.47,1.53,10.25,3.31c3,1.89,6.31,4,12.72,4a20,20,0,0,0,11.32-3.16l-1.39-4.54a16,16,0,0,1-9.93,3.1c-5.07,0-7.47-1.53-10.25-3.31-3-1.89-6.31-4-12.72-4s-9.77,2.15-12.73,4c-2.77,1.78-5.17,3.31-10.25,3.31s-7.47-1.53-10.24-3.31c-3-1.89-6.31-4-12.73-4a21.24,21.24,0,0,0-7.27,1.17c-.05,1.69-.1,3.38-.16,5.07a15.35,15.35,0,0,1,7.43-1.64C109.49,412.9,111.89,414.43,114.67,416.21Z" style="fill: #64A6D4; transform-origin: 140.825px 414.257px;" id="elyon4qus9x2" class="animable"></path><path d="M114.67,430.91c3,1.9,6.31,4,12.72,4s9.77-2.14,12.73-4c2.78-1.77,5.18-3.31,10.25-3.31s7.47,1.54,10.25,3.31l1.13.72v-1.32l2-2.85-.66-.41a20.85,20.85,0,0,0-12.72-4c-6.42,0-9.77,2.14-12.73,4-2.77,1.77-5.17,3.31-10.25,3.31s-7.47-1.54-10.24-3.31c-3-1.9-6.31-4-12.73-4a20.72,20.72,0,0,0-7.73,1.34c-.06,1.74-.11,3.46-.16,5.13a15.35,15.35,0,0,1,7.89-1.88C109.49,427.6,111.89,429.14,114.67,430.91Z" style="fill: #64A6D4; transform-origin: 130.14px 428.978px;" id="elrukdmm2wni" class="animable"></path><path d="M187.32,425.76l-.24-.75a35.32,35.32,0,0,0-3.49,2c-2.78,1.77-5.17,3.31-10.25,3.31a15.77,15.77,0,0,1-6.46-1.19l2.34,5Z" style="fill: #64A6D4; transform-origin: 177.1px 429.57px;" id="elrn7jbe9mexs" class="animable"></path><g id="el7a2db2nnzlb"><g style="opacity: 0.5; transform-origin: 141.52px 410.655px;" class="animable" id="el2lcj6wzhsne"><path d="M98.81,368.44c0,.26-.07.69-.11,1.24a16.46,16.46,0,0,1,5.72-.89c5.07,0,7.47,1.53,10.25,3.31,3,1.89,6.31,4,12.72,4s9.77-2.15,12.73-4c2.78-1.78,5.18-3.31,10.25-3.31s7.47,1.53,10.25,3.31a20.86,20.86,0,0,0,11.51,4l-1.44-4.73a16.92,16.92,0,0,1-7.6-3.15c-3-1.89-6.31-4-12.72-4s-9.77,2.15-12.73,4c-2.77,1.78-5.17,3.31-10.25,3.31s-7.47-1.53-10.24-3.31c-3-1.89-6.31-4-12.73-4-1,0-1.85.06-2.68.14C100.05,365.91,99,367.33,98.81,368.44Z" style="fill: rgb(255, 255, 255); transform-origin: 135.415px 370.16px;" id="elpxnket6cvxq" class="animable"></path><path d="M117.15,456.45c-3-1.89-6.31-4-12.73-4a20.2,20.2,0,0,0-8.62,1.72c0,1.86-.08,2.92-.08,2.92h7.44c.4,0,.82,0,1.26,0s.86,0,1.26,0h12.4Z" style="fill: rgb(255, 255, 255); transform-origin: 106.9px 454.768px;" id="el1yuhv3ztv8v" class="animable"></path><path d="M161.94,455.72a20.16,20.16,0,0,0-11.57-3.31c-6.42,0-9.77,2.15-12.73,4l-.93.6h12.4c.4,0,.82,0,1.26,0s.86,0,1.26,0H162Z" style="fill: rgb(255, 255, 255); transform-origin: 149.355px 454.707px;" id="el4wl68pxohgt" class="animable"></path><path d="M150.37,378.9c-6.42,0-9.77,2.14-12.73,4-2.77,1.78-5.17,3.32-10.25,3.32s-7.47-1.54-10.24-3.32c-3-1.89-6.31-4-12.73-4a22,22,0,0,0-6.22.82c-.06,1.54-.12,3.19-.19,4.94a15.78,15.78,0,0,1,6.41-1.17c5.07,0,7.47,1.54,10.25,3.31,3,1.9,6.31,4,12.72,4s9.77-2.14,12.73-4c2.78-1.77,5.18-3.31,10.25-3.31s7.47,1.54,10.25,3.31c3,1.9,6.31,4,12.72,4a24.54,24.54,0,0,0,3.23-.2l-1.36-4.47c-.58.05-1.2.08-1.87.08-5.07,0-7.47-1.54-10.25-3.32C160.14,381,156.78,378.9,150.37,378.9Z" style="fill: rgb(255, 255, 255); transform-origin: 137.29px 384.849px;" id="elhft7ydtktl9" class="animable"></path><path d="M114.67,445.62c3,1.89,6.31,4,12.72,4s9.77-2.15,12.73-4c2.78-1.78,5.18-3.32,10.25-3.32s7.47,1.54,10.25,3.32l1.25.79-.05-5.46a20,20,0,0,0-11.45-3.24c-6.42,0-9.77,2.15-12.73,4-2.77,1.78-5.17,3.31-10.25,3.31s-7.47-1.53-10.24-3.31c-3-1.89-6.31-4-12.73-4a20.63,20.63,0,0,0-8.18,1.52c-.06,1.84-.11,3.58-.16,5.21a15.26,15.26,0,0,1,8.34-2.14C109.49,442.3,111.89,443.84,114.67,445.62Z" style="fill: rgb(255, 255, 255); transform-origin: 128.975px 443.662px;" id="elokdux27r2s" class="animable"></path><path d="M163.09,397.64c-3-1.89-6.31-4-12.72-4s-9.77,2.15-12.73,4c-2.77,1.78-5.17,3.31-10.25,3.31s-7.47-1.53-10.24-3.31c-3-1.89-6.31-4-12.73-4a21.41,21.41,0,0,0-6.77,1c-.06,1.63-.11,3.3-.17,5a15.51,15.51,0,0,1,6.94-1.41c5.07,0,7.47,1.54,10.25,3.32,3,1.89,6.31,4,12.72,4s9.77-2.15,12.73-4c2.78-1.78,5.18-3.32,10.25-3.32s7.47,1.54,10.25,3.32c3,1.89,6.31,4,12.72,4a20.8,20.8,0,0,0,7.42-1.23l-1.35-4.39a16.25,16.25,0,0,1-6.07,1C168.27,401,165.87,399.42,163.09,397.64Z" style="fill: rgb(255, 255, 255); transform-origin: 139.12px 399.596px;" id="elkn5048k7pso" class="animable"></path><path d="M114.67,416.21c3,1.89,6.31,4,12.72,4s9.77-2.15,12.73-4c2.78-1.78,5.18-3.31,10.25-3.31s7.47,1.53,10.25,3.31c3,1.89,6.31,4,12.72,4a20,20,0,0,0,11.32-3.16l-1.39-4.54a16,16,0,0,1-9.93,3.1c-5.07,0-7.47-1.53-10.25-3.31-3-1.89-6.31-4-12.72-4s-9.77,2.15-12.73,4c-2.77,1.78-5.17,3.31-10.25,3.31s-7.47-1.53-10.24-3.31c-3-1.89-6.31-4-12.73-4a21.24,21.24,0,0,0-7.27,1.17c-.05,1.69-.1,3.38-.16,5.07a15.35,15.35,0,0,1,7.43-1.64C109.49,412.9,111.89,414.43,114.67,416.21Z" style="fill: rgb(255, 255, 255); transform-origin: 140.825px 414.257px;" id="eltwc4akrbfr9" class="animable"></path><path d="M114.67,430.91c3,1.9,6.31,4,12.72,4s9.77-2.14,12.73-4c2.78-1.77,5.18-3.31,10.25-3.31s7.47,1.54,10.25,3.31l1.13.72v-1.32l2-2.85-.66-.41a20.85,20.85,0,0,0-12.72-4c-6.42,0-9.77,2.14-12.73,4-2.77,1.77-5.17,3.31-10.25,3.31s-7.47-1.54-10.24-3.31c-3-1.9-6.31-4-12.73-4a20.72,20.72,0,0,0-7.73,1.34c-.06,1.74-.11,3.46-.16,5.13a15.35,15.35,0,0,1,7.89-1.88C109.49,427.6,111.89,429.14,114.67,430.91Z" style="fill: rgb(255, 255, 255); transform-origin: 130.14px 428.978px;" id="elv3f208ouy9" class="animable"></path><path d="M187.32,425.76l-.24-.75a35.32,35.32,0,0,0-3.49,2c-2.78,1.77-5.17,3.31-10.25,3.31a15.77,15.77,0,0,1-6.46-1.19l2.34,5Z" style="fill: rgb(255, 255, 255); transform-origin: 177.1px 429.57px;" id="eltmzv12qbv6" class="animable"></path></g></g><path d="M127.67,347.57s-28.08,14.94-28.86,20.87-3.09,88.61-3.09,88.61H162l-.21-26.74,3.41-4.83,4.07,8.71,18.1-8.43-17.55-57.38a9.25,9.25,0,0,0-3.64-5c-5.68-3.93-18.64-12.68-22.22-13.48C139.27,348.85,127.67,347.57,127.67,347.57Z" style="fill: none; stroke: rgb(38, 50, 56); stroke-linecap: round; stroke-linejoin: round; transform-origin: 141.545px 402.31px;" id="elkvxiu9dbxr" class="animable"></path><line x1="120.03" y1="390.75" x2="121.99" y2="387.96" style="fill: none; stroke: rgb(38, 50, 56); stroke-linecap: round; stroke-linejoin: round; transform-origin: 121.01px 389.355px;" id="elu6tu5tnta0i" class="animable"></line><line x1="112.1" y1="402.01" x2="118.06" y2="393.54" style="fill: none; stroke: rgb(38, 50, 56); stroke-linecap: round; stroke-linejoin: round; transform-origin: 115.08px 397.775px;" id="el0wp9gczpvkq" class="animable"></line><path d="M106,361.22s-9.79,5.41-10,8.25-18.3,66.22-16.49,71.12,10.31,5.67,10.31,5.67,8-13.14,12.36-15.46a49,49,0,0,1,5.93-2.84l9.28-44.06" style="fill: rgb(255, 255, 255); transform-origin: 98.3864px 403.74px;" id="el5vvolkgnmte" class="animable"></path><path d="M96,369.47c0,.22-.15.82-.37,1.73a15.39,15.39,0,0,1,8.81-2.41,16.17,16.17,0,0,1,5.87.95l-2.68-5.35a25.84,25.84,0,0,0-3.19-.2,25.44,25.44,0,0,0-3.55.25C98.47,366.12,96.1,368.09,96,369.47Z" style="fill: #64A6D4; transform-origin: 102.97px 367.695px;" id="elcg8ki7qazsi" class="animable"></path><path d="M91.7,412.34a17.08,17.08,0,0,1-7.56,3.15c-.4,1.6-.78,3.18-1.14,4.71a21,21,0,0,0,11.17-4c2.78-1.78,5.18-3.31,10.25-3.31a15.89,15.89,0,0,1,6.58,1.23l1-4.56a20.87,20.87,0,0,0-7.54-1.27C98,408.3,94.65,410.45,91.7,412.34Z" style="fill: #64A6D4; transform-origin: 97.5px 414.243px;" id="el4fr47aebjub" class="animable"></path><path d="M104.42,423a20.85,20.85,0,0,0-12.72,4c-2.78,1.77-5.18,3.31-10.25,3.31l-.72,0c-.34,1.69-.63,3.22-.85,4.56.5,0,1,.05,1.57.05a20.85,20.85,0,0,0,12.72-4c2.78-1.77,5.18-3.31,10.25-3.31a19,19,0,0,1,3.68.33l.94-4.49A23.43,23.43,0,0,0,104.42,423Z" style="fill: #64A6D4; transform-origin: 94.46px 428.96px;" id="el3qw0uf59bd8" class="animable"></path><path d="M91.7,397.64a27.71,27.71,0,0,1-3.55,2q-.69,2.63-1.37,5.3a22.9,22.9,0,0,0,7.39-3.45c2.78-1.78,5.18-3.32,10.25-3.32a15.68,15.68,0,0,1,9.36,2.75l1-4.75a20,20,0,0,0-10.36-2.59C98,393.6,94.65,395.75,91.7,397.64Z" style="fill: #64A6D4; transform-origin: 100.78px 399.257px;" id="el80r5brvh00q" class="animable"></path><path d="M92.72,382.28c-.52,2-1.09,4.13-1.69,6.39,1.15-.6,2.17-1.24,3.14-1.87,2.78-1.77,5.18-3.31,10.25-3.31s7.47,1.54,10.25,3.31c.59.38,1.2.77,1.84,1.15l.86-4.05-.61-1.21a20.54,20.54,0,0,0-12.34-3.79A20.22,20.22,0,0,0,92.72,382.28Z" style="fill: #64A6D4; transform-origin: 104.2px 383.782px;" id="elz3zuzm7drwl" class="animable"></path><path d="M93.46,440.65c-.62.36-1.2.74-1.76,1.1a17,17,0,0,1-7.4,3.12,21.4,21.4,0,0,0,5.5,1.39S91.35,443.7,93.46,440.65Z" style="fill: #64A6D4; transform-origin: 88.88px 443.455px;" id="el3eluzk1ndg5" class="animable"></path><g id="elrqzx3bf2eke"><g style="opacity: 0.5; transform-origin: 98.625px 405.225px;" class="animable" id="el9tzrochevpm"><path d="M96,369.47c0,.22-.15.82-.37,1.73a15.39,15.39,0,0,1,8.81-2.41,16.17,16.17,0,0,1,5.87.95l-2.68-5.35a25.84,25.84,0,0,0-3.19-.2,25.44,25.44,0,0,0-3.55.25C98.47,366.12,96.1,368.09,96,369.47Z" style="fill: rgb(255, 255, 255); transform-origin: 102.97px 367.695px;" id="elq4smnyx1mo8" class="animable"></path><path d="M91.7,412.34a17.08,17.08,0,0,1-7.56,3.15c-.4,1.6-.78,3.18-1.14,4.71a21,21,0,0,0,11.17-4c2.78-1.78,5.18-3.31,10.25-3.31a15.89,15.89,0,0,1,6.58,1.23l1-4.56a20.87,20.87,0,0,0-7.54-1.27C98,408.3,94.65,410.45,91.7,412.34Z" style="fill: rgb(255, 255, 255); transform-origin: 97.5px 414.243px;" id="eluyxq266k0o" class="animable"></path><path d="M104.42,423a20.85,20.85,0,0,0-12.72,4c-2.78,1.77-5.18,3.31-10.25,3.31l-.72,0c-.34,1.69-.63,3.22-.85,4.56.5,0,1,.05,1.57.05a20.85,20.85,0,0,0,12.72-4c2.78-1.77,5.18-3.31,10.25-3.31a19,19,0,0,1,3.68.33l.94-4.49A23.43,23.43,0,0,0,104.42,423Z" style="fill: rgb(255, 255, 255); transform-origin: 94.46px 428.96px;" id="elqdmuhcbmsa" class="animable"></path><path d="M91.7,397.64a27.71,27.71,0,0,1-3.55,2q-.69,2.63-1.37,5.3a22.9,22.9,0,0,0,7.39-3.45c2.78-1.78,5.18-3.32,10.25-3.32a15.68,15.68,0,0,1,9.36,2.75l1-4.75a20,20,0,0,0-10.36-2.59C98,393.6,94.65,395.75,91.7,397.64Z" style="fill: rgb(255, 255, 255); transform-origin: 100.78px 399.257px;" id="elsp0pq872psi" class="animable"></path><path d="M92.72,382.28c-.52,2-1.09,4.13-1.69,6.39,1.15-.6,2.17-1.24,3.14-1.87,2.78-1.77,5.18-3.31,10.25-3.31s7.47,1.54,10.25,3.31c.59.38,1.2.77,1.84,1.15l.86-4.05-.61-1.21a20.54,20.54,0,0,0-12.34-3.79A20.22,20.22,0,0,0,92.72,382.28Z" style="fill: rgb(255, 255, 255); transform-origin: 104.2px 383.782px;" id="ele5fzomk23lb" class="animable"></path><path d="M93.46,440.65c-.62.36-1.2.74-1.76,1.1a17,17,0,0,1-7.4,3.12,21.4,21.4,0,0,0,5.5,1.39S91.35,443.7,93.46,440.65Z" style="fill: rgb(255, 255, 255); transform-origin: 88.88px 443.455px;" id="el4rflhv46k6" class="animable"></path></g></g><path d="M106,361.22s-9.79,5.41-10,8.25-18.3,66.22-16.49,71.12,10.31,5.67,10.31,5.67,8-13.14,12.36-15.46a49,49,0,0,1,5.93-2.84l9.28-44.06" style="fill: none; stroke: rgb(38, 50, 56); stroke-linecap: round; stroke-linejoin: round; transform-origin: 98.3864px 403.74px;" id="el1sl59lty9xs" class="animable"></path><path d="M168.34,445.27a18,18,0,0,0,5.7,1.27c3,.12,6.31-.82,4.78,1.2s-5.44,2.4-7.87,2.27S168.34,445.27,168.34,445.27Z" style="fill: rgb(255, 255, 255); stroke: rgb(38, 50, 56); stroke-linecap: round; stroke-linejoin: round; transform-origin: 173.773px 447.651px;" id="elceg02lilry" class="animable"></path><path d="M113,432.6l-.43-.52a20.33,20.33,0,0,0-5.5-4.63c-3.09-1.55-12.37-1.81-20.36,7.47s-3.86,13.91,2.58,15.46,30.66,2.84,36.59,3.87,19,2.87,23.09,1.06a23.76,23.76,0,0,0,6.54-4.16s1.29,4.13,3.1,4.13,1.54-1.55,1.54-1.55,1,1,1.81,1a4,4,0,0,0,1.8-.77,3.22,3.22,0,0,0,2.83.51c1.55-.51,1.55-1.28,1.55-1.28s1.8,1.54,2.58,0-.52-6.7-1-10.31-3.1-3.61-3.1-3.61l-.79-.56a3.39,3.39,0,0,0-2.78-.54l-1.32.33s-2.58-.52-3.87,0-12.11,7-13.65,7.73-5.67,0-10.31-1.81S115.31,436.47,113,432.6Z" style="fill: rgb(255, 255, 255); stroke: rgb(38, 50, 56); stroke-linecap: round; stroke-linejoin: round; transform-origin: 126.637px 441.35px;" id="el6xy6fr4u1m4" class="animable"></path><path d="M155.5,451.15l-.81-3.63s-2.62,4.74-5.69,5.66" style="fill: none; stroke: rgb(38, 50, 56); stroke-linecap: round; stroke-linejoin: round; transform-origin: 152.25px 450.35px;" id="elplnhkvwa82" class="animable"></path><path d="M93.92,442.13C99.59,434.4,113,432.6,113,432.6l-.43-.52a20.33,20.33,0,0,0-5.5-4.63c-3.09-1.55-12.37-1.81-20.36,7.47s-3.86,13.91,2.58,15.46c.73.18,1.7.35,2.84.52C91.38,448.59,91.4,445.57,93.92,442.13Z" style="fill: rgb(255, 255, 255); stroke: rgb(38, 50, 56); stroke-linecap: round; stroke-linejoin: round; transform-origin: 97.655px 438.763px;" id="elevqb2uo3f4q" class="animable"></path><path d="M160.14,453.73s-.51-10.56-2.32-12.88" style="fill: none; stroke: rgb(38, 50, 56); stroke-linecap: round; stroke-linejoin: round; transform-origin: 158.98px 447.29px;" id="elkim9bjbjbr" class="animable"></path><path d="M163.75,454s.77-9.28-1-13.66" style="fill: none; stroke: rgb(38, 50, 56); stroke-linecap: round; stroke-linejoin: round; transform-origin: 163.333px 447.17px;" id="eloz71fqn6pda" class="animable"></path><path d="M168.13,453.22a46.18,46.18,0,0,0-1-11.34" style="fill: none; stroke: rgb(38, 50, 56); stroke-linecap: round; stroke-linejoin: round; transform-origin: 167.645px 447.55px;" id="elcylkc69uknu" class="animable"></path><path d="M166.57,393.66s3.7,11.36,4,18.75-5.4,13.07-5.4,13.07" style="fill: none; stroke: rgb(38, 50, 56); stroke-linecap: round; stroke-linejoin: round; transform-origin: 167.876px 409.57px;" id="el0nzkn9ibdk2g" class="animable"></path><path d="M248.28,443s2.83-.92,4,.34,3.21,9.37,2.36,10.3-2.17,0-2.83-1.78S248.28,443,248.28,443Z" style="fill: rgb(255, 255, 255); stroke: rgb(38, 50, 56); stroke-linecap: round; stroke-linejoin: round; transform-origin: 251.561px 448.341px;" id="elbpo4ryq7pla" class="animable"></path><path d="M245,442.77s3-1.11,4.2.4,3.41,11.12,2.51,12.22-2.3,0-3-2.1S245,442.77,245,442.77Z" style="fill: rgb(255, 255, 255); stroke: rgb(38, 50, 56); stroke-linecap: round; stroke-linejoin: round; transform-origin: 248.46px 449.1px;" id="elt97v84hins" class="animable"></path><path d="M246.57,448.74l-13,5.51-6.13-4.59s10-.62,13.33-1.38A9.32,9.32,0,0,1,246.57,448.74Z" style="fill: rgb(255, 255, 255); stroke: rgb(38, 50, 56); stroke-linecap: round; stroke-linejoin: round; transform-origin: 237.005px 451.133px;" id="eloor9cu8v3be" class="animable"></path><path d="M240.34,442.41s3.46-1.49,5,0,5,11.72,4,13-2.73.22-3.74-2S240.34,442.41,240.34,442.41Z" style="fill: rgb(255, 255, 255); stroke: rgb(38, 50, 56); stroke-linecap: round; stroke-linejoin: round; transform-origin: 244.929px 448.855px;" id="elc9peoopbitp" class="animable"></path><path d="M191,430.21l31.29,16.58s15.91-5.4,17.05-5.4,3.76,4.08,3.76,4.08,6.75,9.84,4.19,10.41-3.44.72-4.26-1.42c-1.83-4.78-4.83-5.11-4.83-5.11l-7.07,1.53a17.23,17.23,0,0,0,6.22,3.58c3.69,1.14,1.13,2.85.57,2.84a112.7,112.7,0,0,1-14.45-1.06,22.09,22.09,0,0,1-6.74-2.6s-20.52-1.69-28.53-3.16c-7.29-1.33-13.92-8-13.64-9.94S187.6,432,187.6,432Z" style="fill: rgb(255, 255, 255); stroke: rgb(38, 50, 56); stroke-linecap: round; stroke-linejoin: round; transform-origin: 211.211px 443.755px;" id="elnsxovd1x6zn" class="animable"></path><path d="M192.71,428.89s-2.55-5.4-6.53-5.4-17.62,9.38-17.9,11.65,8.18,11.37,8.9,8.85c.64-2.22,7.26-15.93,17.77-11.95C200.92,434.3,192.71,428.89,192.71,428.89Z" style="fill: rgb(255, 255, 255); stroke: rgb(38, 50, 56); stroke-linecap: round; stroke-linejoin: round; transform-origin: 182.699px 433.959px;" id="elewf20lbiur" class="animable"></path><path d="M136.13,324.89s-1.81,13.4-2.32,17.78-8.47,11.76-6.92,17.17,20.69,19.88,22.49,18.07,2.21-25.45,3.5-27,3.6-4.64,3.6-4.64Z" style="fill: rgb(255, 255, 255); stroke: rgb(38, 50, 56); stroke-linecap: round; stroke-linejoin: round; transform-origin: 141.585px 351.478px;" id="elcx1qp1t4yqh" class="animable"></path><path d="M136,326.12c-.35,2.63-1.19,8.9-1.75,13.28l19.72,7-1.59-4.42-14.46-15.19Z" style="fill: rgb(38, 50, 56); stroke: rgb(38, 50, 56); stroke-linecap: round; stroke-linejoin: round; transform-origin: 144.11px 336.26px;" id="elicyzwe3akad" class="animable"></path><path d="M152.88,350.92a36.25,36.25,0,0,0-4.3,12.94" style="fill: none; stroke: rgb(38, 50, 56); stroke-linecap: round; stroke-linejoin: round; transform-origin: 150.73px 357.39px;" id="elpprb3erp8o" class="animable"></path><path d="M180.81,308.76s.12.27.3.75c.81,2.12,2.9,8.32,1.77,13.17-1.38,5.95-8.23,6.63-8.57,7.66s-.69-15.07,1.71-18.84" style="fill: rgb(38, 50, 56); stroke: rgb(38, 50, 56); stroke-linecap: round; stroke-linejoin: round; transform-origin: 178.638px 319.574px;" id="el4pd0z6xieej" class="animable"></path><path d="M171.16,338s2,1.7,2.83,9.92-5.67,10.77-5.67,10.77,5.39,3.68,2.55,6.23-14.17,0-17.85-4.53S154.33,346,154.33,346Z" style="fill: rgb(38, 50, 56); stroke: rgb(38, 50, 56); stroke-linecap: round; stroke-linejoin: round; transform-origin: 162.865px 351.966px;" id="elklu968guvum" class="animable"></path><path d="M133.54,313.49c-6.26,0-4.7,7.82-2.74,11.73s4.3,4.69,4.3,4.69,12.13,16,16.43,18.38,6.65,3.92,9.77,2.35,12.52-13.3,14.08-19.55A48,48,0,0,0,177,320.53s4.4-6.21,5.3-9.61a29.89,29.89,0,0,0,1.18-9.43s-21-8.73-26-7.55S139.79,313.49,133.54,313.49Z" style="fill: rgb(255, 255, 255); stroke: rgb(38, 50, 56); stroke-linecap: round; stroke-linejoin: round; transform-origin: 156.285px 322.554px;" id="elc7s6f6t9jid" class="animable"></path><path d="M172.84,317.19a5.85,5.85,0,0,1,4.63,1.08" style="fill: none; stroke: rgb(38, 50, 56); stroke-linecap: round; stroke-linejoin: round; transform-origin: 175.155px 317.678px;" id="el9piazjugcnc" class="animable"></path><path d="M161.06,320.4c-.37,1.39-1.32,2.34-2.13,2.12s-1.18-1.51-.81-2.9,1.32-2.34,2.14-2.12S161.43,319,161.06,320.4Z" style="fill: rgb(38, 50, 56); transform-origin: 159.592px 320.01px;" id="el8e3ntlodwvk" class="animable"></path><path d="M175.1,324.21c-.37,1.39-1.32,2.34-2.14,2.12s-1.17-1.51-.8-2.9,1.32-2.33,2.13-2.12S175.47,322.82,175.1,324.21Z" style="fill: rgb(38, 50, 56); transform-origin: 173.628px 323.821px;" id="el2cij0ugpwnq" class="animable"></path><path d="M157.49,313.5s3.87-2.58,9.54.77" style="fill: none; stroke: rgb(38, 50, 56); stroke-linecap: round; stroke-linejoin: round; transform-origin: 162.26px 313.411px;" id="el2q1jct2krjj" class="animable"></path><path d="M165.88,338.52s-5,.42-7.89-3.32" style="fill: none; stroke: rgb(38, 50, 56); stroke-linecap: round; stroke-linejoin: round; transform-origin: 161.935px 336.867px;" id="elow0j2is7xh" class="animable"></path><path d="M168.05,317.35s-8.26-3.57-11.83-3.13-6,10,.22,12.28S166.26,322.71,168.05,317.35Z" style="fill: none; stroke: rgb(38, 50, 56); stroke-linecap: round; stroke-linejoin: round; transform-origin: 160.332px 320.588px;" id="elgh7g9wku3p" class="animable"></path><path d="M171.36,318.66s7.85,1.07,10.19,3.14-1,10.94-6.68,9.75S169.8,323.81,171.36,318.66Z" style="fill: none; stroke: rgb(38, 50, 56); stroke-linecap: round; stroke-linejoin: round; transform-origin: 176.295px 325.16px;" id="el44uwk5oqhnc" class="animable"></path><path d="M168.05,317.35a3,3,0,0,1,3.24,1.41" style="fill: none; stroke: rgb(38, 50, 56); stroke-linecap: round; stroke-linejoin: round; transform-origin: 169.67px 318.019px;" id="eljezvx4t94c" class="animable"></path><path d="M167.38,320.7a2.71,2.71,0,0,1,2.9.67" style="fill: none; stroke: rgb(38, 50, 56); stroke-linecap: round; stroke-linejoin: round; transform-origin: 168.83px 320.951px;" id="el78a4dzljqmo" class="animable"></path><path d="M163.81,332.3l6.25-.66s-.67-1.34,0-7.15" style="fill: none; stroke: rgb(38, 50, 56); stroke-linecap: round; stroke-linejoin: round; transform-origin: 166.935px 328.395px;" id="el9ajd77ao3oc" class="animable"></path><path d="M169.46,305.87s-3.43-2.09-4-1.26c-2.63,3.65-10.31,15.32-20.42,13.79-17.93-2.72-2.85,18.2-5.76,29.83s-15.15,17-24.57,14.8c-10.8-2.49-13.94,1.46-13.94,1.46S91.07,356.54,94,347.4s12.46-10,12.88-12.46-10.39-.83-8.73-13.71,19.94-23.68,25.34-23.68-.83-2.91,9.14-14.13,39.47-6.23,49.86,1.25,12.05,22.56,4.16,24.23S169.46,305.87,169.46,305.87Z" style="fill: rgb(38, 50, 56); stroke: rgb(38, 50, 56); stroke-linecap: round; stroke-linejoin: round; transform-origin: 142.523px 320.667px;" id="elsuf1mr9gwjj" class="animable"></path><path d="M142,320.11s-3.78-11.09-7.83-8.17-3.5,12.83-2.42,14,4.85,2.33,7.28,1.16" style="fill: rgb(255, 255, 255); stroke: rgb(38, 50, 56); stroke-linecap: round; stroke-linejoin: round; transform-origin: 136.484px 319.518px;" id="elm4xtx9a9hq" class="animable"></path></g><g id="freepik--device-1--inject-17" class="animable" style="transform-origin: 231.67px 427.005px;"><g id="elteuvnvxi7hs"><rect x="166.4" y="453.98" width="121.37" height="3.21" style="fill: rgb(38, 50, 56); stroke: rgb(38, 50, 56); stroke-linecap: round; stroke-linejoin: round; transform-origin: 227.085px 455.585px; transform: rotate(180deg);" class="animable" id="el13v5qgxrbul"></rect></g><g id="elgcbxmhyia5g"><rect x="166.4" y="453.98" width="48.57" height="3.21" style="fill: #64A6D4; stroke: rgb(38, 50, 56); stroke-linecap: round; stroke-linejoin: round; transform-origin: 190.685px 455.585px; transform: rotate(180deg);" class="animable" id="elyz3t7smhz9"></rect></g><polygon points="222.71 396.82 213.64 453.98 286.48 453.98 295.55 396.82 222.71 396.82" style="fill: #64A6D4; stroke: rgb(38, 50, 56); stroke-linecap: round; stroke-linejoin: round; transform-origin: 254.595px 425.4px;" id="eltxo057x8lb" class="animable"></polygon><polygon points="224.11 396.82 215.04 453.98 287.88 453.98 296.94 396.82 224.11 396.82" style="fill: #64A6D4; stroke: rgb(38, 50, 56); stroke-linecap: round; stroke-linejoin: round; transform-origin: 255.99px 425.4px;" id="el7tku3ym7ea" class="animable"></polygon><polygon points="242.25 408.12 228.41 408.12 229.03 404.28 242.87 404.28 242.25 408.12" style="fill: rgb(38, 50, 56); stroke: rgb(38, 50, 56); stroke-linecap: round; stroke-linejoin: round; transform-origin: 235.64px 406.2px;" id="el6rzi7g2lw4x" class="animable"></polygon></g><g id="freepik--table-1--inject-17" class="animable" style="transform-origin: 382.545px 457.19px;"><line x1="375" y1="457.19" x2="44.09" y2="457.19" style="fill: none; stroke: rgb(38, 50, 56); stroke-linecap: round; stroke-linejoin: round; transform-origin: 209.545px 457.19px;" id="el82wj9rpr5h7" class="animable"></line><line x1="679" y1="457.19" x2="385" y2="457.19" style="fill: none; stroke: rgb(38, 50, 56); stroke-linecap: round; stroke-linejoin: round; transform-origin: 532px 457.19px;" id="elcw8g8zx9v06" class="animable"></line><line x1="721" y1="457.19" x2="688" y2="457.19" style="fill: none; stroke: rgb(38, 50, 56); stroke-linecap: round; stroke-linejoin: round; transform-origin: 704.5px 457.19px;" id="el9sltg0sevsq" class="animable"></line></g><g id="freepik--Button--inject-17" class="animable" style="transform-origin: 427.48px 225.575px;"><rect x="369.96" y="208.53" width="115.04" height="34.09" rx="4.78" style="fill: #64A6D4; stroke: rgb(38, 50, 56); stroke-linecap: round; stroke-linejoin: round; transform-origin: 427.48px 225.575px;" id="el69se2x6no9o" class="animable"></rect><path d="M387.21,221.3v2c0,2.53-1.21,3.9-3.69,3.9h-1.17v5.92h-2.48V217.4h3.65C386,217.4,387.21,218.77,387.21,221.3Zm-4.86-1.65V225h1.17c.79,0,1.22-.36,1.22-1.49v-2.36c0-1.13-.43-1.49-1.22-1.49Z" style="fill: rgb(255, 255, 255); transform-origin: 383.54px 225.26px;" id="ele8v42t1qm2w" class="animable"></path><path d="M390.84,217.4v12.16c0,1.13.5,1.53,1.29,1.53s1.28-.4,1.28-1.53V217.4h2.34v12c0,2.52-1.26,4-3.69,4s-3.69-1.44-3.69-4v-12Z" style="fill: rgb(255, 255, 255); transform-origin: 392.06px 225.4px;" id="elziv43dmoz9c" class="animable"></path><path d="M397.44,217.4h2.48v13.51H404v2.25h-6.56Z" style="fill: rgb(255, 255, 255); transform-origin: 400.72px 225.28px;" id="elrdzgb9tprg" class="animable"></path><path d="M405.08,217.4h2.48v13.51h4.07v2.25h-6.55Z" style="fill: rgb(255, 255, 255); transform-origin: 408.355px 225.28px;" id="elo2isc3xyi3" class="animable"></path><path d="M421.39,233.16a4.67,4.67,0,0,1-.23-1.93v-2.48c0-1.46-.5-2-1.62-2h-.86v6.42h-2.47V217.4h3.73c2.57,0,3.67,1.19,3.67,3.62v1.24c0,1.62-.51,2.68-1.62,3.2,1.24.52,1.65,1.71,1.65,3.36v2.43a4.59,4.59,0,0,0,.27,1.91Zm-2.71-13.51v4.84h1c.92,0,1.49-.4,1.49-1.66v-1.56c0-1.12-.39-1.62-1.26-1.62Z" style="fill: rgb(255, 255, 255); transform-origin: 420.06px 225.285px;" id="elyi8246kcbvj" class="animable"></path><path d="M427.74,224h3.4v2.25h-3.4v4.62H432v2.25h-6.76V217.4H432v2.25h-4.28Z" style="fill: rgb(255, 255, 255); transform-origin: 428.62px 225.26px;" id="el4ci5m81o0cj" class="animable"></path><path d="M433.35,221.18c0-2.52,1.33-4,3.76-4s3.76,1.44,3.76,4v8.2a4.72,4.72,0,0,1-.47,2.21c.11.29.29.33.69.33h.23v2.21H441a2.17,2.17,0,0,1-2.14-1.08,5.05,5.05,0,0,1-1.73.29c-2.43,0-3.76-1.44-3.76-4Zm2.47,8.36c0,1.12.5,1.55,1.29,1.55s1.28-.43,1.28-1.55V221c0-1.12-.49-1.55-1.28-1.55s-1.29.43-1.29,1.55Z" style="fill: rgb(255, 255, 255); transform-origin: 437.335px 225.663px;" id="elyvd6fcovrci" class="animable"></path><path d="M444.83,217.4v12.16c0,1.13.5,1.53,1.29,1.53s1.28-.4,1.28-1.53V217.4h2.34v12c0,2.52-1.26,4-3.69,4s-3.69-1.44-3.69-4v-12Z" style="fill: rgb(255, 255, 255); transform-origin: 446.05px 225.4px;" id="el35ntqpygip7" class="animable"></path><path d="M453.91,224h3.4v2.25h-3.4v4.62h4.28v2.25h-6.75V217.4h6.75v2.25h-4.28Z" style="fill: rgb(255, 255, 255); transform-origin: 454.815px 225.26px;" id="elid4l1fg75e" class="animable"></path><path d="M463.06,217.22c2.41,0,3.65,1.44,3.65,4v.5h-2.35V221c0-1.12-.45-1.55-1.23-1.55s-1.24.43-1.24,1.55c0,3.25,4.84,3.86,4.84,8.36,0,2.52-1.26,4-3.69,4s-3.7-1.44-3.7-4v-1h2.34v1.13c0,1.12.5,1.53,1.29,1.53s1.28-.41,1.28-1.53c0-3.25-4.84-3.85-4.84-8.36C459.41,218.66,460.65,217.22,463.06,217.22Z" style="fill: rgb(255, 255, 255); transform-origin: 463.035px 225.29px;" id="el80a4c5fnctn" class="animable"></path><path d="M467.43,217.4h7.65v2.25H472.5v13.51H470V219.65h-2.59Z" style="fill: rgb(255, 255, 255); transform-origin: 471.245px 225.28px;" id="elmqi6uqy5h4" class="animable"></path></g><g id="freepik--Icon--inject-17" class="animable" style="transform-origin: 173.03px 130.58px;"><circle cx="173.03" cy="130.58" r="76.98" style="fill: #64A6D4; transform-origin: 173.03px 130.58px;" id="ele83kjp4kkjd" class="animable"></circle><path d="M146.19,77.19a16.17,16.17,0,0,1,15.69,13,15.89,15.89,0,0,1-9.72,17.71.85.85,0,0,0-.64,1q0,21.54,0,43.09a.91.91,0,0,0,.68,1,15.88,15.88,0,0,1,10,15.17,15.95,15.95,0,0,1-31.69,2,15.9,15.9,0,0,1,9.84-17.22.82.82,0,0,0,.61-.91q0-21.58,0-43.15a.87.87,0,0,0-.65-1,15.87,15.87,0,0,1,3.14-30.37C144.33,77.35,145.26,77.29,146.19,77.19Zm5.34,90.42a5.31,5.31,0,1,0-5.33,5.29A5.25,5.25,0,0,0,151.53,167.61Zm-5.3-79.72a5.31,5.31,0,1,0,5.3,5.31A5.2,5.2,0,0,0,146.23,87.89Z" style="fill: rgb(38, 50, 56); transform-origin: 146.263px 130.387px;" id="elat4yx560f94" class="animable"></path><path d="M183.45,98.54v10.31L167.77,93.13l15.65-15.66V87.88h.76c2.43.05,4.88,0,7.29.16a26.61,26.61,0,0,1,23.47,22,31.6,31.6,0,0,1,.37,4.76q0,18.52,0,37a1,1,0,0,0,.71,1.09A15.91,15.91,0,0,1,226,168.08a15.95,15.95,0,0,1-31.65,2.23,15.87,15.87,0,0,1,9.82-17.43.78.78,0,0,0,.57-.88c0-12.41,0-24.82,0-37.22A15.53,15.53,0,0,0,196,100.26,15,15,0,0,0,189,98.51c-1.64,0-3.28,0-4.91,0Zm31.87,69A5.31,5.31,0,1,0,210,172.9,5.25,5.25,0,0,0,215.32,167.58Z" style="fill: rgb(38, 50, 56); transform-origin: 196.888px 130.484px;" id="elxj75yb42kx9" class="animable"></path></g><defs>     <filter id="active" height="200%">         <feMorphology in="SourceAlpha" result="DILATED" operator="dilate" radius="2"></feMorphology>                <feFlood flood-color="#32DFEC" flood-opacity="1" result="PINK"></feFlood>        <feComposite in="PINK" in2="DILATED" operator="in" result="OUTLINE"></feComposite>        <feMerge>            <feMergeNode in="OUTLINE"></feMergeNode>            <feMergeNode in="SourceGraphic"></feMergeNode>        </feMerge>    </filter>    <filter id="hover" height="200%">        <feMorphology in="SourceAlpha" result="DILATED" operator="dilate" radius="2"></feMorphology>                <feFlood flood-color="#ff0000" flood-opacity="0.5" result="PINK"></feFlood>        <feComposite in="PINK" in2="DILATED" operator="in" result="OUTLINE"></feComposite>        <feMerge>            <feMergeNode in="OUTLINE"></feMergeNode>            <feMergeNode in="SourceGraphic"></feMergeNode>        </feMerge>            <feColorMatrix type="matrix" values="0   0   0   0   0                0   1   0   0   0                0   0   0   0   0                0   0   0   1   0 "></feColorMatrix>    </filter></defs></svg>